<svg width="32" height="32" viewBox="0 0 32 32" fill="none" xmlns="http://www.w3.org/2000/svg">
<path d="M16.3452 31.608C24.8881 31.608 31.9393 24.5568 31.9393 16.0139C31.9393 7.48608 24.873 0.434814 16.3301 0.434814C7.80231 0.434814 0.766113 7.48608 0.766113 16.0139C0.766113 24.5568 7.81738 31.608 16.3452 31.608ZM12.6086 21.8749C11.1923 21.8749 10.0925 22.3721 9.64046 22.7789C9.39939 22.9597 9.20352 23.0802 8.85699 23.0802C8.40498 23.0802 8.04338 22.809 8.04338 22.1762V10.9665C8.60085 9.8817 10.2733 8.94756 12.1867 8.94756C13.7989 8.94756 15.185 9.68583 15.7425 10.6652V22.9597C15.637 22.9296 15.2905 22.7035 15.1549 22.6282C14.733 22.3721 13.9194 21.8749 12.6086 21.8749ZM20.0818 21.8749C18.786 21.8749 17.9573 22.357 17.5505 22.6282C17.3999 22.7186 17.0684 22.9597 16.9629 22.9898V10.6652C17.5505 9.68583 18.9065 8.94756 20.4886 8.94756C22.4171 8.94756 24.0895 9.8817 24.647 10.9665V22.1762C24.647 22.809 24.2703 23.0802 23.8183 23.0802C23.4869 23.0802 23.2759 22.9597 23.0499 22.7789C22.5979 22.3721 21.498 21.8749 20.0818 21.8749Z" fill="#AEAEB2"/>
</svg>
