<svg width="31" height="31" viewBox="0 0 31 31" fill="none" xmlns="http://www.w3.org/2000/svg">
<path fill-rule="evenodd" clip-rule="evenodd" d="M15.5 31C24.0604 31 31 24.0604 31 15.5C31 6.93959 24.0604 0 15.5 0C6.93959 0 0 6.93959 0 15.5C0 24.0604 6.93959 31 15.5 31ZM8.34343 14.9166C8.40828 14.9722 8.49323 15 8.57818 15C8.66313 15 8.74809 14.9722 8.81294 14.9166L13.8385 10.6095L16.881 13.2172C16.9433 13.2706 17.0278 13.3006 17.1158 13.3006C17.2038 13.3006 17.2883 13.2706 17.3507 13.2172L22.372 8.91381L22.6102 9.11801C22.6941 9.18982 22.8163 9.21805 22.931 9.19171C23.0455 9.16537 23.135 9.08867 23.1657 8.99051L23.9887 6.35826C24.0194 6.26 23.9866 6.15528 23.9027 6.08336C23.8189 6.01145 23.6966 5.98343 23.5821 6.00967L20.5108 6.71497C20.3963 6.74132 20.3068 6.81802 20.276 6.91628C20.2453 7.01443 20.2781 7.11926 20.3619 7.19107L20.6562 7.44329L17.1159 10.4775L14.0733 7.8698C13.9437 7.75876 13.7335 7.75865 13.6038 7.8698L7.09727 13.4462C6.96758 13.5574 6.96758 13.7376 7.09727 13.8487L8.34343 14.9166ZM24.2578 23.338H24.6289C24.8339 23.338 25 23.4863 25 23.669C25 23.8518 24.8339 24 24.6289 24H6.37109C6.16612 24 6 23.8518 6 23.669C6 23.4863 6.16612 23.338 6.37109 23.338H6.74219V20.3039C6.74219 20.1212 6.90831 19.9729 7.11328 19.9729H9.19141C9.39638 19.9729 9.5625 20.1212 9.5625 20.3039V23.338H10.416V17.2808C10.416 17.0981 10.5821 16.9498 10.7871 16.9498H12.8652C13.0702 16.9498 13.2363 17.0981 13.2363 17.2808V23.338H14.0898V19.0351C14.0898 18.8524 14.256 18.7041 14.4609 18.7041H16.5391C16.744 18.7041 16.9102 18.8524 16.9102 19.0351V23.338H17.7637V17.2808C17.7637 17.0981 17.9298 16.9498 18.1348 16.9498H20.2129C20.4179 16.9498 20.584 17.0981 20.584 17.2808V23.338H21.4375V13.331C21.4375 13.1482 21.6036 13 21.8086 13H23.8867C24.0917 13 24.2578 13.1482 24.2578 13.331V23.338Z" fill="url(#paint0_linear)"/>
<defs>
<linearGradient id="paint0_linear" x1="15.5" y1="0" x2="15.5" y2="31" gradientUnits="userSpaceOnUse">
<stop stop-color="#174B97"/>
<stop offset="1" stop-color="#174B97"/>
</linearGradient>
</defs>
</svg>
