<svg width="14" height="14" viewBox="0 0 14 14" fill="none" xmlns="http://www.w3.org/2000/svg">
<path d="M7.19823 13.3137C10.791 13.3137 13.7617 10.343 13.7617 6.75025C13.7617 3.15747 10.7847 0.186768 7.19188 0.186768C3.59276 0.186768 0.628403 3.15747 0.628403 6.75025C0.628403 10.343 3.59911 13.3137 7.19823 13.3137ZM4.92577 5.35376C4.71629 5.14429 4.72264 4.81421 4.92577 4.60474C5.14159 4.38892 5.46532 4.38892 5.68114 4.60474L7.18553 6.10913L9.7119 3.57642C9.92772 3.3606 10.2451 3.37329 10.4673 3.57642C10.6831 3.78589 10.6767 4.12232 10.4673 4.33179L7.56639 7.23902C7.35057 7.45484 7.02049 7.45484 6.80467 7.23902L4.92577 5.35376ZM0.666489 10.3748V12.2219C0.666489 13.0535 1.07274 13.4534 1.91698 13.4534H3.8911C2.49461 12.7678 1.42821 11.7459 0.666489 10.3748ZM13.7236 10.3748C12.9619 11.7459 11.8955 12.7678 10.499 13.4534H12.4731C13.3174 13.4534 13.7236 13.0535 13.7236 12.2219V10.3748Z" fill="#174B97"/>
</svg>
