<svg width="48" height="39" viewBox="0 0 48 39" fill="none" xmlns="http://www.w3.org/2000/svg">
<path d="M7.08947 38.3132H41.3996C45.5049 38.3132 47.8873 35.9308 47.8873 31.3788V7.87438C47.8873 3.32238 45.4836 0.940029 40.8891 0.940029H6.57897C2.47366 0.940029 0.0913086 3.30111 0.0913086 7.87438V31.3788C0.0913086 35.9308 2.49493 38.3132 7.08947 38.3132ZM21.5963 20.3605L6.111 5.04533C6.4088 4.98152 6.74913 4.93898 7.11074 4.93898H40.8678C41.2507 4.93898 41.591 4.98152 41.9101 5.0666L26.4461 20.3605C25.5527 21.2326 24.8082 21.6154 24.0212 21.6154C23.2342 21.6154 22.4897 21.2113 21.5963 20.3605ZM4.06899 8.17217L15.6404 19.5522L4.06899 30.996V8.17217ZM32.402 19.5522L43.9096 8.23598V30.9534L32.402 19.5522ZM7.11074 34.293C6.72786 34.293 6.36626 34.2504 6.04719 34.1866L18.2355 22.1047L19.3841 23.2533C20.9369 24.7636 22.4259 25.4017 24.0212 25.4017C25.5952 25.4017 27.1055 24.7636 28.637 23.2533L29.8069 22.1047L41.9739 34.1653C41.6336 34.2504 41.272 34.293 40.8678 34.293H7.11074Z" fill="url(#paint0_linear)"/>
<defs>
<linearGradient id="paint0_linear" x1="23.9893" y1="0.940029" x2="23.9893" y2="38.3132" gradientUnits="userSpaceOnUse">
<stop stop-color="#174B97"/>
<stop offset="1" stop-color="#174B97"/>
</linearGradient>
</defs>
</svg>
