<svg width="33" height="32" viewBox="0 0 33 32" xmlns="http://www.w3.org/2000/svg">
<path d="M16.4923 32C25.2617 32 32.5 24.7617 32.5 15.9923C32.5 7.23828 25.2463 0 16.4768 0C7.72281 0 0.5 7.23828 0.5 15.9923C0.5 24.7617 7.73828 32 16.4923 32ZM6.91856 10.0377C6.91856 9.49638 7.30522 9.10972 7.83108 9.10972H10.4913C11.2646 9.10972 11.8214 9.57371 11.9297 10.2852L12.0534 11.2441H24.5039C25.0607 11.2441 25.3545 11.5534 25.3545 12.0174C25.3545 12.0947 25.3391 12.2339 25.3236 12.3267L24.7359 16.3325C24.5657 17.5389 23.9316 18.2504 22.7098 18.2504H13.0897L13.167 18.8536C13.2289 19.2866 13.5073 19.5341 13.9094 19.5341H22.3695C22.8799 19.5341 23.2511 19.8743 23.2511 20.4002C23.2511 20.957 22.8799 21.2972 22.3695 21.2972H13.8166C12.3937 21.2972 11.5739 20.6013 11.3884 19.3175L10.182 10.9657H7.83108C7.30522 10.9657 6.91856 10.579 6.91856 10.0377ZM12.6721 23.7564C12.6721 22.9367 13.3217 22.2871 14.1414 22.2871C14.9611 22.2871 15.6107 22.9367 15.6107 23.7564C15.6107 24.5761 14.9611 25.2102 14.1414 25.2102C13.3217 25.2102 12.6721 24.5761 12.6721 23.7564ZM19.601 23.7564C19.601 22.9367 20.2661 22.2871 21.0858 22.2871C21.9055 22.2871 22.5551 22.9367 22.5551 23.7564C22.5551 24.5761 21.9055 25.2102 21.0858 25.2102C20.2661 25.2102 19.601 24.5761 19.601 23.7564Z"/>
</svg>
