<svg width="46" height="43" viewBox="0 0 46 43" fill="none" xmlns="http://www.w3.org/2000/svg">
<path d="M17.0726 36.3413L27.1343 41.9523C27.6405 42.2265 28.0624 42.4374 28.5897 42.564V7.52728L18.8022 1.62103C18.1694 1.24134 17.5788 0.967123 17.0726 0.840561V36.3413ZM0.76709 39.1679C0.76709 41.0031 1.92725 42.0156 3.61475 42.0156C4.22646 42.0156 4.85928 41.8257 5.57646 41.446L13.9718 36.8898V1.07259C13.5077 1.26244 12.9593 1.49447 12.3897 1.83197L2.85537 7.25306C1.421 8.05462 0.76709 9.19369 0.76709 10.7968V39.1679ZM31.6694 42.4585C31.9226 42.3952 32.1757 42.2898 32.4077 42.121L43.0812 36.0882C44.5577 35.2656 45.2327 34.1476 45.2327 32.5445V4.32103C45.2327 2.4015 44.0515 1.45228 42.2585 1.45228C41.6046 1.45228 40.9085 1.64212 40.1702 2.0429L31.6694 6.7679V42.4585Z" fill="url(#paint0_linear)"/>
<defs>
<linearGradient id="paint0_linear" x1="22.9999" y1="0.840561" x2="22.9999" y2="42.564" gradientUnits="userSpaceOnUse">
<stop stop-color="#174B97"/>
<stop offset="1" stop-color="#174B97"/>
</linearGradient>
</defs>
</svg>
