<svg width="48" height="48" viewBox="0 0 48 48" fill="none" xmlns="http://www.w3.org/2000/svg">
<path d="M35.3672 47.1354C39.4688 47.1354 42.2578 45.9635 44.7891 43.2213C44.9531 43.0338 45.1172 42.8229 45.2812 42.6354C46.6641 41.0885 47.3438 39.4713 47.3438 37.9713C47.3438 36.2135 46.4062 34.6197 44.3203 33.1901L37.3359 28.3151C35.1328 26.7916 32.5781 26.6744 30.6094 28.6432L28.875 30.3776C28.2656 30.9869 27.6797 31.0338 26.9766 30.5416C25.7109 29.6979 23.3203 27.5885 21.6797 25.9479C20.0156 24.2838 18.3281 22.4088 17.4141 20.9791C16.9219 20.2526 16.9688 19.6901 17.5781 19.0807L19.3125 17.3463C21.2812 15.3776 21.1641 12.8229 19.6172 10.6197L14.6484 3.51819C13.2656 1.50256 11.6016 0.565062 9.84375 0.541625C8.34375 0.518187 6.75 1.19787 5.20312 2.55725C5.01562 2.72131 4.82812 2.88537 4.64062 3.04944C1.85156 5.60412 0.65625 8.34631 0.65625 12.6119C0.65625 19.526 4.66406 27.6822 12.4688 35.4401C20.2266 43.151 28.2891 47.1354 35.3672 47.1354ZM35.3672 43.2213C29.3906 43.3151 21.9609 39.0729 15.4453 32.6041C8.88281 26.1354 4.52344 18.4244 4.61719 12.4479C4.66406 9.94006 5.55469 7.73694 7.3125 6.19006C7.5 6.04944 7.64062 5.93225 7.82812 5.79162C8.48438 5.22912 9.1875 4.92444 9.84375 4.92444C10.5234 4.92444 11.1328 5.20569 11.6016 5.90881L15.9844 12.4947C16.5469 13.2916 16.5703 14.2057 15.75 15.0026L13.875 16.8541C12.0938 18.5885 12.2578 20.6276 13.3828 22.2213C14.6484 23.9791 17.0156 26.6744 19.0078 28.6432C21.1406 30.7526 24.0469 33.3541 25.7344 34.5729C27.3281 35.6979 29.3672 35.8619 31.1016 34.0807L32.9531 32.2057C33.7266 31.3854 34.6406 31.4088 35.4609 31.9479L41.9297 36.2604C42.6562 36.7291 42.9141 37.3151 42.9141 37.9947C42.9141 38.651 42.6094 39.3541 42.0469 40.0338C41.9062 40.1979 41.7891 40.3385 41.6484 40.526C40.1016 42.3072 37.8984 43.1979 35.3672 43.2213Z" fill="url(#paint0_linear)"/>
<defs>
<linearGradient id="paint0_linear" x1="24" y1="0.541039" x2="24" y2="47.1354" gradientUnits="userSpaceOnUse">
<stop stop-color="#174B97"/>
<stop offset="1" stop-color="#174B97"/>
</linearGradient>
</defs>
</svg>
