<svg width="14" height="14" viewBox="0 0 14 14" fill="none" xmlns="http://www.w3.org/2000/svg">
<path d="M2.53793 13.5186H11.4556C12.8609 13.5186 13.5927 12.7529 13.5927 11.29V2.9707C13.5927 1.50781 12.8609 0.742188 11.4556 0.742188H2.53793C1.13908 0.742188 0.407278 1.50098 0.407278 2.9707V11.29C0.407278 12.7529 1.13908 13.5186 2.53793 13.5186ZM2.53146 12.1582C1.99394 12.1582 1.69603 11.8643 1.69603 11.2627V4.97363C1.69603 4.37207 1.99394 4.07812 2.53146 4.07812H11.4621C11.9996 4.07812 12.2975 4.37207 12.2975 4.97363V11.2627C12.2975 11.8643 11.9996 12.1582 11.4621 12.1582H2.53146ZM5.7501 6.43652H6.1322C6.36534 6.43652 6.44305 6.36133 6.44305 6.12207V5.71875C6.44305 5.47266 6.36534 5.39746 6.1322 5.39746H5.7501C5.51696 5.39746 5.43925 5.47266 5.43925 5.71875V6.12207C5.43925 6.36133 5.51696 6.43652 5.7501 6.43652ZM7.8678 6.43652H8.2499C8.47656 6.43652 8.55428 6.36133 8.55428 6.12207V5.71875C8.55428 5.47266 8.47656 5.39746 8.2499 5.39746H7.8678C7.63466 5.39746 7.55695 5.47266 7.55695 5.71875V6.12207C7.55695 6.36133 7.63466 6.43652 7.8678 6.43652ZM9.97903 6.43652H10.3611C10.5943 6.43652 10.672 6.36133 10.672 6.12207V5.71875C10.672 5.47266 10.5943 5.39746 10.3611 5.39746H9.97903C9.75236 5.39746 9.67465 5.47266 9.67465 5.71875V6.12207C9.67465 6.36133 9.75236 6.43652 9.97903 6.43652ZM3.63888 8.6377H4.01449C4.24764 8.6377 4.32535 8.5625 4.32535 8.31641V7.91309C4.32535 7.67383 4.24764 7.59863 4.01449 7.59863H3.63888C3.40574 7.59863 3.32802 7.67383 3.32802 7.91309V8.31641C3.32802 8.5625 3.40574 8.6377 3.63888 8.6377ZM5.7501 8.6377H6.1322C6.36534 8.6377 6.44305 8.5625 6.44305 8.31641V7.91309C6.44305 7.67383 6.36534 7.59863 6.1322 7.59863H5.7501C5.51696 7.59863 5.43925 7.67383 5.43925 7.91309V8.31641C5.43925 8.5625 5.51696 8.6377 5.7501 8.6377ZM7.8678 8.6377H8.2499C8.47656 8.6377 8.55428 8.5625 8.55428 8.31641V7.91309C8.55428 7.67383 8.47656 7.59863 8.2499 7.59863H7.8678C7.63466 7.59863 7.55695 7.67383 7.55695 7.91309V8.31641C7.55695 8.5625 7.63466 8.6377 7.8678 8.6377ZM9.97903 8.6377H10.3611C10.5943 8.6377 10.672 8.5625 10.672 8.31641V7.91309C10.672 7.67383 10.5943 7.59863 10.3611 7.59863H9.97903C9.75236 7.59863 9.67465 7.67383 9.67465 7.91309V8.31641C9.67465 8.5625 9.75236 8.6377 9.97903 8.6377ZM3.63888 10.832H4.01449C4.24764 10.832 4.32535 10.7568 4.32535 10.5176V10.1143C4.32535 9.86816 4.24764 9.79297 4.01449 9.79297H3.63888C3.40574 9.79297 3.32802 9.86816 3.32802 10.1143V10.5176C3.32802 10.7568 3.40574 10.832 3.63888 10.832ZM5.7501 10.832H6.1322C6.36534 10.832 6.44305 10.7568 6.44305 10.5176V10.1143C6.44305 9.86816 6.36534 9.79297 6.1322 9.79297H5.7501C5.51696 9.79297 5.43925 9.86816 5.43925 10.1143V10.5176C5.43925 10.7568 5.51696 10.832 5.7501 10.832ZM7.8678 10.832H8.2499C8.47656 10.832 8.55428 10.7568 8.55428 10.5176V10.1143C8.55428 9.86816 8.47656 9.79297 8.2499 9.79297H7.8678C7.63466 9.79297 7.55695 9.86816 7.55695 10.1143V10.5176C7.55695 10.7568 7.63466 10.832 7.8678 10.832Z" fill="url(#paint0_linear)"/>
<defs>
<linearGradient id="paint0_linear" x1="7" y1="0.742187" x2="7" y2="13.5186" gradientUnits="userSpaceOnUse">
<stop stop-color="#174B97"/>
<stop offset="1" stop-color="#174B97"/>
</linearGradient>
</defs>
</svg>
