<svg width="31" height="31" viewBox="0 0 31 31" xmlns="http://www.w3.org/2000/svg">
<path d="M15.4926 30.6787C23.9 30.6787 30.8394 23.7393 30.8394 15.332C30.8394 6.93941 23.8851 0 15.4778 0C7.08523 0 0.160645 6.93941 0.160645 15.332C0.160645 23.7393 7.10006 30.6787 15.4926 30.6787ZM15.4926 14.813C13.3277 14.813 11.5781 12.9892 11.5781 10.5426C11.5781 8.27392 13.3277 6.37596 15.4926 6.37596C17.6426 6.37596 19.3923 8.27392 19.3923 10.5426C19.3923 12.9892 17.6426 14.8278 15.4926 14.813ZM8.70146 23.0572C8.00455 23.0572 7.67834 22.5976 7.67834 21.9748C7.67834 20.3141 10.1398 16.0289 15.4926 16.0289C20.8306 16.0289 23.292 20.3141 23.292 21.9748C23.292 22.5976 22.9658 23.0572 22.2837 23.0572H8.70146Z"/>
</svg>
