<svg width="32" height="32" viewBox="0 0 32 32" fill="none" xmlns="http://www.w3.org/2000/svg">
<path d="M16.3452 31.6078C24.8881 31.6078 31.9393 24.5565 31.9393 16.0136C31.9393 7.48583 24.873 0.43457 16.3301 0.43457C7.80231 0.43457 0.766113 7.48583 0.766113 16.0136C0.766113 24.5565 7.81738 31.6078 16.3452 31.6078ZM12.6086 21.8746C11.1923 21.8746 10.0925 22.3718 9.64046 22.7786C9.39939 22.9594 9.20352 23.08 8.85699 23.08C8.40498 23.08 8.04338 22.8088 8.04338 22.176V10.9663C8.60085 9.88146 10.2733 8.94731 12.1867 8.94731C13.7989 8.94731 15.185 9.68559 15.7425 10.6649V22.9594C15.637 22.9293 15.2905 22.7033 15.1549 22.628C14.733 22.3718 13.9194 21.8746 12.6086 21.8746ZM20.0818 21.8746C18.786 21.8746 17.9573 22.3568 17.5505 22.628C17.3999 22.7184 17.0684 22.9594 16.9629 22.9896V10.6649C17.5505 9.68559 18.9065 8.94731 20.4886 8.94731C22.4171 8.94731 24.0895 9.88146 24.647 10.9663V22.176C24.647 22.8088 24.2703 23.08 23.8183 23.08C23.4869 23.08 23.2759 22.9594 23.0499 22.7786C22.5979 22.3718 21.498 21.8746 20.0818 21.8746Z" fill="url(#paint0_linear)"/>
<defs>
<linearGradient id="paint0_linear" x1="16.3527" y1="0.43457" x2="16.3527" y2="31.6078" gradientUnits="userSpaceOnUse">
<stop stop-color="#174B97"/>
<stop offset="1" stop-color="#174B97"/>
</linearGradient>
</defs>
</svg>
