<svg width="148" height="144" viewBox="0 0 148 144" fill="none" xmlns="http://www.w3.org/2000/svg">
<path d="M123.636 14.9299C114.623 9.47522 103.819 8.88194 94.2997 13.4237C86.1923 17.28 79.8845 23.8378 71.7682 27.697C60.68 32.976 48.5055 35.8618 37.296 40.9191C26.0865 45.9763 15.3565 53.9021 11.3368 65.2723C6.60081 78.7018 8.26433 94.4928 15.5074 106.77C27.2823 126.726 50.6367 133.813 73.1209 133.554C120.632 133.01 145.105 77.0228 137.353 36.7863C135.66 28.0685 131.534 19.7079 123.636 14.9299Z" fill="#174B97"/>
<path opacity="0.7" d="M123.636 14.9299C114.623 9.47522 103.819 8.88194 94.2997 13.4237C86.1923 17.28 79.8845 23.8378 71.7682 27.697C60.68 32.976 48.5055 35.8618 37.296 40.9191C26.0865 45.9763 15.3565 53.9021 11.3368 65.2723C6.60081 78.7018 8.26433 94.4928 15.5074 106.77C27.2823 126.726 50.6367 133.813 73.1209 133.554C120.632 133.01 145.105 77.0228 137.353 36.7863C135.66 28.0685 131.534 19.7079 123.636 14.9299Z" fill="white"/>
<path d="M35.7006 89.3578L33.2142 89.7956L32.7258 87.1748L29.7717 87.6961L30.2601 90.3169L27.7766 90.7546L28.3302 93.7297L30.8136 93.2919L31.302 95.9127L34.2561 95.3943L33.7677 92.7706L36.2541 92.3329L35.7006 89.3578Z" stroke="#174B97" stroke-linecap="round" stroke-linejoin="round"/>
<path d="M60.5231 49.2106L58.1403 48.3926L59.052 45.8813L56.2222 44.9078L55.3106 47.4192L52.9278 46.6013L51.8947 49.4525L54.2746 50.2704L53.3629 52.7846L56.1926 53.7552L57.1073 51.2438L59.4871 52.0618L60.5231 49.2106Z" stroke="#174B97" stroke-linecap="round" stroke-linejoin="round"/>
<path d="M120.623 79.2259L118.391 80.375L117.109 78.0192L114.454 79.3843L115.736 81.7401L113.504 82.8893L114.958 85.5619L117.189 84.4128L118.471 86.7657L121.126 85.4006L119.844 83.0448L122.076 81.8956L120.623 79.2259Z" stroke="#174B97" stroke-linecap="round" stroke-linejoin="round"/>
<path d="M25.3169 83.1139C26.3174 83.1139 27.1284 82.3247 27.1284 81.3513C27.1284 80.3779 26.3174 79.5887 25.3169 79.5887C24.3164 79.5887 23.5054 80.3779 23.5054 81.3513C23.5054 82.3247 24.3164 83.1139 25.3169 83.1139Z" stroke="#174B97" stroke-linecap="round" stroke-linejoin="round"/>
<path d="M53.5346 57.7872C53.5346 57.8795 53.5064 57.9697 53.4538 58.0464C53.4011 58.1232 53.3262 58.183 53.2386 58.2183C53.1509 58.2536 53.0545 58.2628 52.9615 58.2448C52.8685 58.2268 52.783 58.1824 52.716 58.1172C52.6489 58.0519 52.6032 57.9688 52.5847 57.8783C52.5662 57.7878 52.5757 57.694 52.612 57.6087C52.6483 57.5234 52.7098 57.4506 52.7886 57.3993C52.8675 57.348 52.9602 57.3207 53.0551 57.3207C53.1822 57.3207 53.3042 57.3698 53.3941 57.4573C53.4841 57.5448 53.5346 57.6635 53.5346 57.7872V57.7872Z" stroke="#174B97" stroke-linecap="round" stroke-linejoin="round"/>
<path d="M31.5921 49.7837C31.5921 50.1095 31.4928 50.428 31.3067 50.6989C31.1207 50.9698 30.8563 51.181 30.5469 51.3057C30.2375 51.4304 29.8971 51.463 29.5686 51.3994C29.2402 51.3359 28.9385 51.179 28.7017 50.9486C28.465 50.7182 28.3037 50.4247 28.2384 50.1051C28.173 49.7855 28.2066 49.4543 28.3347 49.1533C28.4629 48.8523 28.6799 48.595 28.9583 48.414C29.2367 48.233 29.5641 48.1364 29.899 48.1364C30.3478 48.1371 30.778 48.3109 31.0953 48.6197C31.4127 48.9285 31.5913 49.347 31.5921 49.7837V49.7837Z" stroke="#174B97" stroke-linecap="round" stroke-linejoin="round"/>
<path d="M106.193 72.0979C106.193 72.2825 106.137 72.4629 106.031 72.6163C105.926 72.7698 105.776 72.8894 105.601 72.96C105.426 73.0306 105.233 73.0491 105.047 73.0131C104.861 72.9771 104.69 72.8882 104.556 72.7577C104.422 72.6272 104.33 72.461 104.293 72.28C104.256 72.0989 104.275 71.9113 104.348 71.7408C104.42 71.5703 104.543 71.4246 104.701 71.3221C104.859 71.2195 105.044 71.1648 105.234 71.1648C105.488 71.1648 105.732 71.2631 105.912 71.4381C106.092 71.6131 106.193 71.8504 106.193 72.0979V72.0979Z" stroke="#174B97" stroke-linecap="round" stroke-linejoin="round"/>
<path d="M96.499 43.6579C97.6842 43.6579 98.645 42.7231 98.645 41.5699C98.645 40.4168 97.6842 39.4819 96.499 39.4819C95.3138 39.4819 94.353 40.4168 94.353 41.5699C94.353 42.7231 95.3138 43.6579 96.499 43.6579Z" stroke="#174B97" stroke-linecap="round" stroke-linejoin="round"/>
<path d="M83.2862 60.3389C83.3987 60.503 86.7938 61.1626 88.555 63.6538C89.5797 65.085 90.4393 66.6216 91.1184 68.2358C91.1184 68.2358 94.0636 69.9408 95.5732 71.3462C97.0828 72.7517 98.8825 74.6179 100.271 75.5971C101.659 76.5763 104.515 78.4339 105.235 80.6083C105.235 80.6083 100.951 92.0217 99.7409 94.5446C98.5302 97.0675 95.5436 102.421 95.5436 102.421L90.2156 124.445H59.3102L58.2565 116.891C58.2565 116.891 48.7845 115.082 44.8269 111.707C44.8269 111.707 44.454 103.355 46.1086 95.904C47.7633 88.4534 53.3902 72.9619 57.2027 68.2301C57.2027 68.2301 63.2914 65.3962 68.6638 64.4861C68.6638 64.4861 72.1507 61.8048 74.4329 61.5197C76.715 61.2345 83.2862 60.3389 83.2862 60.3389Z" fill="white"/>
<path d="M58.6731 120.295C61.417 120.805 63.8087 121.245 66.603 121.213C69.3972 121.182 72.2507 120.571 74.5358 119.013C74.9772 118.656 75.4776 118.373 76.0158 118.178C77.2294 117.847 78.4311 118.627 79.6359 118.99C81.1632 119.451 82.8386 119.232 84.3363 118.679C85.8341 118.126 87.1809 117.265 88.5159 116.407C88.3185 119.056 88.2544 121.711 88.3235 124.37L90.2267 124.445L95.1019 103.573C95.1019 103.573 86.7635 112.997 82.6995 115.811L74.9028 113.858C74.9028 113.858 74.1687 114.451 72.6236 114.751C72.6236 114.751 71.9162 117.397 67.9379 117.403C63.9597 117.409 58.2558 116.891 58.2558 116.891L58.6731 120.295Z" fill="#174B97"/>
<path opacity="0.5" d="M58.6731 120.295C61.417 120.805 63.8087 121.245 66.603 121.213C69.3972 121.182 72.2507 120.571 74.5358 119.013C74.9772 118.656 75.4776 118.373 76.0158 118.178C77.2294 117.847 78.4311 118.627 79.6359 118.99C81.1632 119.451 82.8386 119.232 84.3363 118.679C85.8341 118.126 87.1809 117.265 88.5159 116.407C88.3185 119.056 88.2544 121.711 88.3235 124.37L90.2267 124.445L95.1019 103.573C95.1019 103.573 86.7635 112.997 82.6995 115.811L74.9028 113.858C74.9028 113.858 74.1687 114.451 72.6236 114.751C72.6236 114.751 71.9162 117.397 67.9379 117.403C63.9597 117.409 58.2558 116.891 58.2558 116.891L58.6731 120.295Z" fill="white"/>
<path d="M50.6848 81.3514C50.6848 81.3514 47.0647 98.45 47.2482 104.322C47.2482 104.322 52.1678 102.98 55.6014 104.322C55.6014 104.322 49.7583 103.689 47.2423 106.295C44.7263 108.902 52.4697 115.75 67.9623 114.359C67.9623 114.359 71.0526 115.301 72.6214 114.748C72.6214 114.748 72.201 117.472 67.9357 117.4C63.6881 117.236 51.262 117.135 44.824 111.71C44.827 111.712 44.0159 95.9934 50.6848 81.3514Z" fill="#174B97"/>
<path opacity="0.6" d="M50.6848 81.3514C50.6848 81.3514 47.0647 98.45 47.2482 104.322C47.2482 104.322 52.1678 102.98 55.6014 104.322C55.6014 104.322 49.7583 103.689 47.2423 106.295C44.7263 108.902 52.4697 115.75 67.9623 114.359C67.9623 114.359 71.0526 115.301 72.6214 114.748C72.6214 114.748 72.201 117.472 67.9357 117.4C63.6881 117.236 51.262 117.135 44.824 111.71C44.827 111.712 44.0159 95.9934 50.6848 81.3514Z" fill="white"/>
<path d="M58.0871 84.6288C58.0871 84.6288 59.1556 92.2003 60.8813 93.7843C62.607 95.3683 70.6493 94.8499 73.8343 96.5577C73.8343 96.5577 76.8328 91.5033 82.2555 88.3411L74.9028 99.6048L68.5477 98.1446L60.7895 96.9926L60.1383 98.4499H58.9721C58.9721 98.4499 58.8419 90.3686 58.0871 84.6288Z" fill="#174B97"/>
<path opacity="0.5" d="M58.0871 84.6288C58.0871 84.6288 59.1556 92.2003 60.8813 93.7843C62.607 95.3683 70.6493 94.8499 73.8343 96.5577C73.8343 96.5577 76.8328 91.5033 82.2555 88.3411L74.9028 99.6048L68.5477 98.1446L60.7895 96.9926L60.1383 98.4499H58.9721C58.9721 98.4499 58.8419 90.3686 58.0871 84.6288Z" fill="white"/>
<path d="M88.4833 69.2064C91.8074 71.1101 92.1803 73.2557 92.8641 74.7879C91.1354 75.1219 89.3476 75.4791 87.9209 76.4842C86.1449 77.7399 85.1829 79.8192 84.437 81.8381C83.7313 83.7486 83.1384 85.6967 82.661 87.673C84.2676 84.849 86.5514 82.4442 89.318 80.6631C90.9134 79.6378 92.8848 78.8112 94.7052 79.3901C93.1778 80.0208 91.4492 80.8733 91.1266 82.4573C91.0631 82.7202 91.0744 82.995 91.1591 83.2522C91.4314 83.9981 92.3846 84.1997 93.1068 84.5626C94.5158 85.2682 95.2498 86.8666 95.312 88.416C95.3742 89.9655 94.8858 91.4631 94.4033 92.929C93.979 94.2135 93.5547 95.4979 93.1305 96.7824C92.5888 98.424 92.0382 100.089 91.0585 101.529C90.0787 102.969 88.6076 104.175 86.8582 104.458C86.1269 104.595 85.3699 104.511 84.6886 104.219C84.1721 103.945 83.692 103.612 83.2589 103.225C81.1602 101.576 78.6382 100.516 75.9654 100.161C79.405 102.373 81.033 106.39 82.4597 110.154C81.8046 109.039 80.8606 108.109 79.7217 107.459C79.4298 107.261 79.0828 107.154 78.7271 107.153C77.7918 107.225 77.4958 108.386 76.9334 109.112C76.2585 109.976 75.0242 110.284 73.9171 110.146C72.8101 110.007 71.7918 109.503 70.7973 108.994L58.2143 102.681L57.3263 105.273C57.3263 105.273 67.3489 113.049 82.7054 115.799C82.7054 115.799 92.6806 108.13 96.2148 101.33C99.749 94.5303 105.24 80.5939 105.24 80.5939C105.24 80.5939 103.23 76.8903 99.7846 74.9578C99.7846 74.9578 97.2123 73.7741 96.6706 72.3111C96.129 70.848 91.2953 68.3223 91.2953 68.3223C91.2953 68.3223 91.9228 69.8832 88.4833 69.2064Z" fill="#174B97"/>
<path opacity="0.6" d="M88.4833 69.2064C91.8074 71.1101 92.1803 73.2557 92.8641 74.7879C91.1354 75.1219 89.3476 75.4791 87.9209 76.4842C86.1449 77.7399 85.1829 79.8192 84.437 81.8381C83.7313 83.7486 83.1384 85.6967 82.661 87.673C84.2676 84.849 86.5514 82.4442 89.318 80.6631C90.9134 79.6378 92.8848 78.8112 94.7052 79.3901C93.1778 80.0208 91.4492 80.8733 91.1266 82.4573C91.0631 82.7202 91.0744 82.995 91.1591 83.2522C91.4314 83.9981 92.3846 84.1997 93.1068 84.5626C94.5158 85.2682 95.2498 86.8666 95.312 88.416C95.3742 89.9655 94.8858 91.4631 94.4033 92.929C93.979 94.2135 93.5547 95.4979 93.1305 96.7824C92.5888 98.424 92.0382 100.089 91.0585 101.529C90.0787 102.969 88.6076 104.175 86.8582 104.458C86.1269 104.595 85.3699 104.511 84.6886 104.219C84.1721 103.945 83.692 103.612 83.2589 103.225C81.1602 101.576 78.6382 100.516 75.9654 100.161C79.405 102.373 81.033 106.39 82.4597 110.154C81.8046 109.039 80.8606 108.109 79.7217 107.459C79.4298 107.261 79.0828 107.154 78.7271 107.153C77.7918 107.225 77.4958 108.386 76.9334 109.112C76.2585 109.976 75.0242 110.284 73.9171 110.146C72.8101 110.007 71.7918 109.503 70.7973 108.994L58.2143 102.681L57.3263 105.273C57.3263 105.273 67.3489 113.049 82.7054 115.799C82.7054 115.799 92.6806 108.13 96.2148 101.33C99.749 94.5303 105.24 80.5939 105.24 80.5939C105.24 80.5939 103.23 76.8903 99.7846 74.9578C99.7846 74.9578 97.2123 73.7741 96.6706 72.3111C96.129 70.848 91.2953 68.3223 91.2953 68.3223C91.2953 68.3223 91.9228 69.8832 88.4833 69.2064Z" fill="white"/>
<path d="M87.4265 42.696C87.4265 42.696 88.0985 35.0726 84.7211 34.344C81.3437 33.6153 79.4464 30.6 79.4464 30.6L67.4643 33.8544L65.6054 40.8643L66.7894 44.4125C66.7894 44.4125 67.0381 47.7043 67.0854 49.3315C67.1328 50.9587 67.0854 52.2115 68.3523 54.1872C69.6192 56.1629 70.7973 58.1241 73.5353 59.832V64.3219C73.5353 64.3219 71.8422 69.1286 72.7775 72.0777C72.7775 72.0777 73.337 72.6537 74.8821 71.7897C76.4272 70.9257 83.0369 66.6288 85.3427 62.1417L86.059 50.7341C86.059 50.7341 87.9623 51.0221 88.7822 49.3344C89.9869 47.6841 89.9396 45.7603 89.4719 44.1936C89.0042 42.6269 86.9914 43.6406 86.9914 43.6406L87.4265 42.696Z" fill="#999999"/>
<path d="M73.6655 53.8732C74.0043 53.5143 74.4219 53.2341 74.8872 53.0537C75.3524 52.8732 75.8535 52.797 76.3532 52.8307C76.3532 52.8307 77.7947 50.6159 79.3132 51.022C79.3132 51.022 79.7809 53.3692 77.9605 54.2937C75.5925 55.4947 73.6655 53.8732 73.6655 53.8732Z" fill="#737373"/>
<path d="M69.2137 32.8839C69.2137 32.8839 66.3454 36.5502 66.5112 40.3719C66.6769 44.1937 67.2482 46.9038 67.0825 49.8529C66.9167 52.802 70.1135 57.7412 73.3902 59.7313C75.8381 61.2202 78.9077 60.9668 81.2905 59.4433C83.9545 57.7153 85.4197 54.6106 85.9554 51.6298C86.0087 51.3418 86.0501 51.0538 86.0797 50.7428" stroke="#263238" stroke-linecap="round" stroke-linejoin="round"/>
<path d="M73.3902 59.7341C73.3902 59.7341 73.855 63.864 73.3902 65.2781C72.8782 66.8304 72.2595 70.4448 72.7982 72.0777C73.337 73.7107 83.4158 66.8477 85.3634 62.1389C85.3634 62.1389 85.6328 52.9891 86.3047 50.7024" stroke="#263238" stroke-linecap="round" stroke-linejoin="round"/>
<path d="M73.112 53.7725C73.112 53.7725 77.697 55.0339 79.5737 50.4288" stroke="#263238" stroke-linecap="round" stroke-linejoin="round"/>
<path d="M73.482 60.7276C73.482 60.7276 74.4588 63.6739 76.5663 63.8495C78.6738 64.0252 83.9456 59.9155 85.7423 55.0742V52.6521C85.7423 52.6521 84.2623 58.9881 79.9289 60.1401C75.5954 61.2921 73.5678 59.8262 73.5678 59.8262L73.482 60.7276Z" fill="#263238"/>
<path d="M79.3102 51.022C77.2738 50.8838 76.3502 52.8307 76.3502 52.8307C75.8483 52.7711 75.3391 52.8354 74.8694 53.0176C74.3997 53.1997 73.9847 53.494 73.6626 53.8732C74.1643 54.3111 74.7811 54.6049 75.4443 54.7218C76.1075 54.8388 76.791 54.7743 77.4188 54.5356C79.7335 53.7523 79.3102 51.022 79.3102 51.022Z" stroke="#263238" stroke-linecap="round" stroke-linejoin="round"/>
<path d="M74.2042 42.3361C74.2295 43.2498 74.188 44.1641 74.0799 45.0721C73.9704 45.8871 73.5826 46.6676 73.26 47.4337C72.964 48.1306 72.4697 49.202 72.8811 49.9364C73.3488 50.7687 74.9028 49.9364 74.9028 49.9364" stroke="#263238" stroke-linecap="round" stroke-linejoin="round"/>
<path d="M75.8589 49.7636C76.3828 49.8327 77.1258 49.7636 77.2738 48.8794" stroke="#263238" stroke-linecap="round" stroke-linejoin="round"/>
<path d="M77.552 41.2359C78.0585 40.7658 78.7316 40.5035 79.4316 40.5035C80.1316 40.5035 80.8047 40.7658 81.3112 41.2359" stroke="#263238" stroke-width="2" stroke-linecap="round" stroke-linejoin="round"/>
<path d="M71.5787 41.9559C71.5787 41.9559 70.1905 40.2279 68.373 41.9559" stroke="#263238" stroke-width="2" stroke-linecap="round" stroke-linejoin="round"/>
<path d="M84.9905 46.3248C84.9905 46.3248 86.5741 42.624 88.6401 43.4189C90.0639 43.969 90.1497 46.3594 89.395 48.0269C88.6402 49.6944 88.2613 51.3936 85.7453 50.4432" stroke="#263238" stroke-linecap="round" stroke-linejoin="round"/>
<path d="M85.2717 45.7575C85.2717 45.7575 83.7502 45.2333 83.469 42.8285C83.1878 40.4237 84.7034 38.016 84.141 36.288C83.5786 34.56 79.1474 35.424 78.1381 32.4115C78.1381 32.4115 74.811 34.825 68.3701 34.3066C68.3701 34.3066 67.0114 36.5587 66.7746 37.9354C66.4575 40.0878 66.4655 42.2738 66.7983 44.424C66.7983 44.4989 66.825 44.5709 66.8398 44.6458C67.3015 46.9901 65.0016 41.4547 65.0638 39.0902C65.1259 36.7258 63.6607 33.7219 65.5699 31.4842C67.4791 29.2464 74.4795 27.936 75.8589 26.8848C77.2382 25.8336 79.92 28.633 83.0191 29.664C86.1182 30.695 88.6875 31.9248 88.2968 36.2016C87.9061 40.4784 88.3175 41.0515 88.3353 43.3037C88.3353 43.3095 86.9026 42.7853 85.2717 45.7575Z" fill="#263238"/>
<path d="M79.4375 44.352C79.4375 44.928 79.2096 45.4061 78.9254 45.4061C78.6413 45.4061 78.4163 44.9337 78.4163 44.352C78.4163 43.7702 78.6442 43.3008 78.9254 43.3008C79.2066 43.3008 79.4375 43.776 79.4375 44.352Z" fill="#263238"/>
<path d="M71.5787 44.352C71.5787 44.928 71.3508 45.4061 71.0696 45.4061C70.7884 45.4061 70.5605 44.9337 70.5605 44.352C70.5605 43.7702 70.7884 43.3008 71.0696 43.3008C71.3508 43.3008 71.5787 43.776 71.5787 44.352Z" fill="#263238"/>
<path d="M77.552 45.7574C77.552 45.7574 78.6087 46.849 79.9466 47.0045" stroke="#263238" stroke-linecap="round" stroke-linejoin="round"/>
<path d="M70.3533 47.0045C70.3533 47.0045 72.2861 46.872 72.7213 45.7574" stroke="#263238" stroke-linecap="round" stroke-linejoin="round"/>
<path d="M74.8466 72.7775C76.2851 71.8876 78.1884 72.2217 79.7631 72.8524C80.6274 73.2009 81.4503 73.6387 82.3117 74.0044C82.7375 74.1876 83.1768 74.3397 83.6259 74.4595C84.7063 74.7331 84.3186 73.4284 84.2564 72.8438C84.1676 72.0057 84.1054 71.1647 84.0018 70.3324C83.9593 70.1601 83.9803 69.9786 84.061 69.8198C84.1673 69.6916 84.3158 69.6031 84.4814 69.5692C86.3787 68.9932 88.4241 69.2467 90.4014 69.2812C90.5809 69.3019 90.7627 69.2687 90.9223 69.1862C91.2183 68.999 91.1858 68.5756 91.1058 68.2415C90.4221 65.3961 88.0097 62.5651 85.3871 61.1423" stroke="#263238" stroke-linecap="round" stroke-linejoin="round"/>
<path d="M73.556 61.6031C72.2507 62.1331 70.9098 62.6832 69.785 63.4953C69.3769 63.7848 69.0009 64.1149 68.6631 64.4803C68.391 64.7322 68.22 65.0701 68.1807 65.4335C68.1879 65.6026 68.234 65.7679 68.3154 65.9174C68.3969 66.0669 68.5116 66.1968 68.6513 66.2975C68.85 66.4566 69.0688 66.5902 69.3025 66.695C69.8471 66.9455 70.4865 67.1903 70.7174 67.7231C70.7735 67.8348 70.7941 67.9601 70.7766 68.0831C70.7472 68.1912 70.6902 68.2903 70.6108 68.3711C70.1609 68.9039 69.3676 69.3158 69.4268 70.0041C69.4653 70.5369 70.0188 70.8681 70.5102 71.1043C71.0015 71.3404 71.5758 71.5852 71.7445 72.095" stroke="#263238" stroke-linecap="round" stroke-linejoin="round"/>
<path d="M65.8275 34.5974C66.0199 33.4454 67.2571 32.7024 68.4471 32.5152C69.637 32.328 70.8595 32.5152 72.0583 32.4144C73.0609 32.318 74.0305 32.0133 74.9017 31.5209C75.7729 31.0285 76.5253 30.3599 77.108 29.5603" stroke="white" stroke-linecap="round" stroke-linejoin="round"/>
<path d="M67.1743 31.3603C69.3232 30.1248 72.3424 31.4093 74.4381 30.0902C75.0311 29.6701 75.5474 29.1561 75.9655 28.5696" stroke="white" stroke-linecap="round" stroke-linejoin="round"/>
<path d="M94.5868 78.624C86.8908 80.1187 84.0196 85.6282 84.0196 85.6282L74.9028 99.5991" stroke="#263238" stroke-linecap="round" stroke-linejoin="round"/>
<path d="M88.0807 77.1149C88.7193 76.5393 89.4426 76.0598 90.2267 75.6921" stroke="#263238" stroke-linecap="round" stroke-linejoin="round"/>
<path d="M82.6995 87.6614C82.6995 87.6614 83.6703 82.6157 86.4587 78.8976" stroke="#263238" stroke-linecap="round" stroke-linejoin="round"/>
<path d="M58.9721 98.427C58.9721 98.427 58.5725 82.97 57.1961 80.6084" stroke="#263238" stroke-linecap="round" stroke-linejoin="round"/>
<path d="M91.1177 68.2358C91.1177 68.2358 95.5577 70.8278 97.529 73.2643C99.5004 75.7008 104.159 77.3194 105.225 80.6083C105.225 80.6083 99.089 99.4205 92.6598 106.22C86.2307 113.02 82.6906 115.811 82.6906 115.811C82.6906 115.811 67.2246 113.196 57.1931 104.999L60.7806 96.9783C60.7806 96.9783 70.895 98.2224 74.8939 99.6048C78.8929 100.987 82.6906 109.359 82.6906 109.359" stroke="#263238" stroke-linecap="round" stroke-linejoin="round"/>
<path d="M74.9028 99.6049C74.9028 99.6049 81.9831 100.944 84.2831 104.08" stroke="#263238" stroke-linecap="round" stroke-linejoin="round"/>
<path d="M95.2765 102.83L90.2267 124.445H59.3095L58.2558 116.891" stroke="#263238" stroke-linecap="round" stroke-linejoin="round"/>
<path d="M72.6236 114.751C70.9157 118.155 68.6631 117.403 68.6631 117.403C51.2435 118.045 44.8262 111.712 44.8262 111.712C44.8262 111.712 43.9382 102.805 47.363 90.7834C50.7877 78.7623 57.202 68.2359 57.202 68.2359C60.0466 66.3955 66.3928 64.9584 68.1836 64.5783L68.6631 64.4803" stroke="#263238" stroke-linecap="round" stroke-linejoin="round"/>
<path d="M68.672 117.403C68.672 117.403 67.7515 117.256 67.9853 111.318" stroke="#263238" stroke-linecap="round" stroke-linejoin="round"/>
<path d="M57.6726 105.379C57.6726 105.379 53.3214 103.887 47.9313 107.516" stroke="#263238" stroke-linecap="round" stroke-linejoin="round"/>
<path d="M48.9081 104.08C48.9081 104.08 54.609 102.43 57.1961 105.074" stroke="#263238" stroke-linecap="round" stroke-linejoin="round"/>
<path d="M56.5804 104.924L57.3204 105.284L60.1383 98.4355C60.1383 98.4355 57.2198 97.9718 52.5963 103.573C54.04 103.59 55.4388 104.064 56.5804 104.924Z" fill="#999999" stroke="#263238" stroke-miterlimit="10"/>
<path d="M67.9764 111.318V114.362C67.9764 114.362 71.9635 115.514 74.9147 113.858L67.9764 111.318Z" fill="#999999" stroke="#263238" stroke-miterlimit="10"/>
<path d="M89.5873 69.2496C89.5902 69.3059 89.5842 69.3622 89.5696 69.4167C89.4453 69.8919 86.4053 81.0576 76.6758 86.0256C76.5912 86.0698 76.4966 86.0925 76.4005 86.0919C76.2683 86.0918 76.1398 86.0486 76.0357 85.9692C75.9316 85.8898 75.8578 85.7788 75.8261 85.6538C75.7944 85.5289 75.8067 85.3972 75.8609 85.2798C75.9151 85.1624 76.0082 85.066 76.1253 85.0061C85.0053 80.4759 88.134 70.1511 88.4063 69.2007L89.5873 69.2496Z" fill="#263238"/>
<path d="M68.6513 66.289C67.1132 69.7072 66.2833 73.3871 66.2093 77.1178C66.2093 77.4202 66.2093 77.7284 66.2093 78.0423C66.2093 78.1201 66.2093 78.1978 66.2093 78.2756C66.121 78.2785 66.033 78.2872 65.9459 78.3015C65.6256 78.3507 65.315 78.4478 65.0253 78.5895C65.0253 78.1661 65.0253 77.7543 65.0253 77.3482C65.1526 70.8855 67.1358 66.4877 68.1925 64.5869L68.672 64.489C68.3999 64.7409 68.2288 65.0789 68.1895 65.4423C68.1983 65.6077 68.2443 65.7691 68.324 65.9154C68.4038 66.0617 68.5155 66.1892 68.6513 66.289Z" fill="#263238"/>
<path d="M80.3078 83.4278C81.0004 84.3638 80.4321 85.919 79.035 86.9011C77.6378 87.8831 75.9447 87.9177 75.2491 86.9817C74.5535 86.0457 75.1218 84.4905 76.519 83.5084C77.9161 82.5263 79.624 82.4918 80.3078 83.4278Z" fill="white" stroke="#263238" stroke-linecap="round" stroke-linejoin="round"/>
<path d="M78.585 82.8721C79.0764 83.5345 78.6738 84.6346 77.697 85.3287C76.7202 86.0228 75.5096 86.0487 75.033 85.3863C74.5565 84.7239 74.9442 83.6238 75.921 82.9297C76.8978 82.2356 78.0937 82.2126 78.585 82.8721Z" fill="white" stroke="#263238" stroke-linecap="round" stroke-linejoin="round"/>
<path d="M70.7618 94.562C70.6357 94.6436 70.4823 94.675 70.3331 94.6499C70.1839 94.6248 70.0503 94.545 69.9597 94.427C69.8691 94.309 69.8284 94.1617 69.846 94.0154C69.8636 93.8691 69.9382 93.7349 70.0543 93.6404C70.1046 93.6001 72.0908 91.9556 71.2206 86.4174C71.1466 85.9479 71.0518 85.4468 70.9246 84.9198C70.5486 83.2407 69.9685 81.1153 68.7815 79.5543C68.4991 79.1426 68.1125 78.8086 67.6588 78.5846C67.2051 78.3606 66.6998 78.2542 66.1915 78.2756C66.1032 78.2785 66.0152 78.2872 65.9281 78.3015C65.6078 78.3507 65.2973 78.4479 65.0075 78.5895C64.1233 79.0339 63.4521 79.7965 63.1368 80.715L63.0302 81.003C62.359 82.7691 61.8102 84.577 61.3874 86.4145C60.9138 88.6753 60.754 91.0455 61.5946 92.7015C61.8199 93.1559 62.1408 93.5591 62.5365 93.8851C62.9322 94.2111 63.3939 94.4525 63.8916 94.5937C64.0252 94.6364 64.1389 94.7241 64.2121 94.8409C64.2854 94.9577 64.3135 95.0961 64.2914 95.2313C64.2693 95.3665 64.1985 95.4896 64.0916 95.5786C63.9847 95.6675 63.8488 95.7166 63.7081 95.7169C63.6457 95.7167 63.5838 95.707 63.5246 95.6881C62.8772 95.499 62.2773 95.1812 61.7627 94.7549C61.2481 94.3285 60.83 93.8029 60.535 93.2113C59.5878 91.3479 59.7121 88.8106 60.1916 86.4145C60.6167 84.4439 61.1926 82.507 61.9143 80.6199L62.0209 80.3319C62.2536 79.6465 62.6434 79.0214 63.1608 78.504C63.6782 77.9866 64.3097 77.5904 65.0075 77.3454C65.2491 77.2639 65.4978 77.2042 65.7505 77.1668C65.9014 77.1466 66.0465 77.1322 66.2004 77.1236C66.8933 77.105 67.5798 77.2559 68.1973 77.5623C68.8147 77.8687 69.3433 78.3209 69.7346 78.8775C71.0548 80.6055 71.6823 82.8894 72.0819 84.6807C72.221 85.297 72.3276 85.8759 72.4075 86.4231C73.3429 92.6324 70.8772 94.4814 70.7618 94.562Z" fill="#263238" stroke="#263238" stroke-miterlimit="10"/>
<path d="M63.2937 95.616C63.2937 95.616 65.4397 96.48 65.9843 95.616C66.529 94.752 66.0879 94.3459 65.345 94.2768C64.6045 94.2399 63.8625 94.2399 63.122 94.2768L63.2937 95.616Z" fill="#263238" stroke="#263238" stroke-miterlimit="10"/>
<path d="M64.2794 95.3281C64.2407 95.4435 64.1654 95.5442 64.0644 95.6155C63.9634 95.6869 63.8418 95.7254 63.717 95.7255C63.6546 95.7254 63.5927 95.7156 63.5334 95.6967C62.8861 95.5076 62.2862 95.1898 61.7716 94.7635C61.257 94.3372 60.8389 93.8115 60.5438 93.2199C59.5966 91.3565 59.721 88.8193 60.2005 86.4231H61.3845C60.9109 88.6839 60.751 91.0541 61.5917 92.7101C61.8169 93.1645 62.1378 93.5678 62.5335 93.8937C62.9292 94.2197 63.3909 94.4611 63.8886 94.6023C63.9635 94.6246 64.0331 94.6612 64.0934 94.7098C64.1537 94.7585 64.2034 94.8183 64.2398 94.8858C64.2761 94.9533 64.2983 95.0272 64.3051 95.1031C64.3119 95.179 64.3032 95.2555 64.2794 95.3281Z" fill="white" stroke="#263238" stroke-linecap="round" stroke-linejoin="round"/>
<path d="M68.7845 93.937C68.6953 94.0401 68.6294 94.1603 68.5911 94.2899C68.5529 94.4194 68.5431 94.5553 68.5625 94.6887C68.6216 94.886 68.7499 95.0568 68.9252 95.1715C69.1004 95.2863 69.3114 95.3376 69.5215 95.3166C69.9419 95.2621 70.3263 95.0567 70.5989 94.7406C70.8949 94.418 71.9221 92.307 70.9719 92.6698C70.2822 92.9233 69.2462 93.3524 68.7845 93.937Z" fill="#263238" stroke="#263238" stroke-miterlimit="10"/>
<path d="M70.7618 94.5619C70.6357 94.6434 70.4823 94.6749 70.3331 94.6498C70.1839 94.6247 70.0503 94.5449 69.9597 94.4269C69.8691 94.3089 69.8284 94.1615 69.846 94.0152C69.8636 93.8689 69.9381 93.7347 70.0543 93.6403C70.1046 93.5999 72.0908 91.9555 71.2206 86.4172H72.4046C73.3429 92.6323 70.8772 94.4812 70.7618 94.5619Z" fill="white" stroke="#263238" stroke-linecap="round" stroke-linejoin="round"/>
<path opacity="0.2" d="M76.072 43.6579C76.072 43.6579 79.7986 41.7744 83.2233 43.6579C83.2233 43.6579 83.2796 46.4371 81.9861 47.5805C81.5273 47.9866 79.4257 48.0557 78.6294 47.9866C75.3971 47.7014 76.072 43.6579 76.072 43.6579Z" fill="white"/>
<path opacity="0.2" d="M73.7336 43.6579C73.7336 43.6579 70.007 41.7744 66.5852 43.6579C66.5852 43.6579 66.529 46.4371 67.8195 47.5805C68.2783 47.9866 70.3829 48.0557 71.1762 47.9866C74.4085 47.7014 73.7336 43.6579 73.7336 43.6579Z" fill="white"/>
<path d="M76.072 43.6579C76.072 43.6579 79.7986 41.7744 83.2233 43.6579C83.2233 43.6579 83.2796 46.4371 81.9861 47.5805C81.5273 47.9866 79.4257 48.0557 78.6294 47.9866C75.3971 47.7014 76.072 43.6579 76.072 43.6579Z" stroke="#263238" stroke-miterlimit="10"/>
<path d="M73.7336 43.6579C73.7336 43.6579 70.007 41.7744 66.5852 43.6579C66.5852 43.6579 66.529 46.4371 67.8195 47.5805C68.2783 47.9866 70.3829 48.0557 71.1762 47.9866C74.4085 47.7014 73.7336 43.6579 73.7336 43.6579Z" stroke="#263238" stroke-miterlimit="10"/>
<path d="M73.7336 43.6579C73.7336 43.6579 74.5683 43.0617 76.072 43.6579" stroke="#263238" stroke-miterlimit="10"/>
<path d="M83.2233 43.658L84.7803 44.3607" stroke="#263238" stroke-miterlimit="10"/>
<path d="M23.6267 132.111L34.5817 122.043H121.529L128.112 132.111H23.6267Z" fill="white" stroke="#263238" stroke-linecap="round" stroke-linejoin="round"/>
<path d="M128.112 132.111H23.6267V134.821H128.112V132.111Z" fill="#263238" stroke="#263238" stroke-linecap="round" stroke-linejoin="round"/>
<path d="M34.5817 129.623V127.535H51.7497V129.623H48.4374H34.5817Z" fill="white" stroke="#263238" stroke-miterlimit="10"/>
<path d="M34.5817 127.535L44.7226 120.917L58.2557 121.228L51.7497 127.535H34.5817Z" fill="white" stroke="#263238" stroke-linecap="round" stroke-linejoin="round"/>
<path d="M51.7497 129.623L58.2557 123.281V121.228L51.7497 127.535V129.623Z" fill="white" stroke="#263238" stroke-linecap="round" stroke-linejoin="round"/>
<path d="M51.285 127.008C51.285 127.008 49.9145 127.273 49.9145 128.428C49.9145 129.583 51.0985 129.923 51.0985 129.923" stroke="#263238" stroke-width="2" stroke-linecap="round" stroke-linejoin="round"/>
<path d="M49.9145 127.008C49.9145 127.008 48.544 127.273 48.544 128.428C48.544 129.583 49.728 129.923 49.728 129.923" stroke="#263238" stroke-width="2" stroke-linecap="round" stroke-linejoin="round"/>
<path d="M48.544 127.008C48.544 127.008 47.1735 127.273 47.1735 128.428C47.1735 129.583 48.3575 129.923 48.3575 129.923" stroke="#263238" stroke-width="2" stroke-linecap="round" stroke-linejoin="round"/>
<path d="M47.1735 127.008C47.1735 127.008 45.803 127.273 45.803 128.428C45.803 129.583 46.987 129.923 46.987 129.923" stroke="#263238" stroke-width="2" stroke-linecap="round" stroke-linejoin="round"/>
<path d="M45.803 127.008C45.803 127.008 44.4326 127.273 44.4326 128.428C44.4326 129.583 45.6166 129.923 45.6166 129.923" stroke="#263238" stroke-width="2" stroke-linecap="round" stroke-linejoin="round"/>
<path d="M44.4326 127.008C44.4326 127.008 43.0621 127.273 43.0621 128.428C43.0621 129.583 44.2461 129.923 44.2461 129.923" stroke="#263238" stroke-width="2" stroke-linecap="round" stroke-linejoin="round"/>
<path d="M43.0621 127.008C43.0621 127.008 41.6916 127.273 41.6916 128.428C41.6916 129.583 42.8756 129.923 42.8756 129.923" stroke="#263238" stroke-width="2" stroke-linecap="round" stroke-linejoin="round"/>
<path d="M41.6916 127.008C41.6916 127.008 40.3211 127.273 40.3211 128.428C40.3211 129.583 41.5051 129.923 41.5051 129.923" stroke="#263238" stroke-width="2" stroke-linecap="round" stroke-linejoin="round"/>
<path d="M40.1524 127.008C40.1524 127.008 38.7819 127.273 38.7819 128.428C38.7819 129.583 39.9659 129.923 39.9659 129.923" stroke="#263238" stroke-width="2" stroke-linecap="round" stroke-linejoin="round"/>
<path d="M38.6102 127.008C38.6102 127.008 37.2397 127.273 37.2397 128.428C37.2397 129.583 38.4237 129.923 38.4237 129.923" stroke="#263238" stroke-width="2" stroke-linecap="round" stroke-linejoin="round"/>
<path d="M36.8964 127.008C36.8964 127.008 35.5259 127.273 35.5259 128.428C35.5259 129.583 36.7099 129.923 36.7099 129.923" stroke="#263238" stroke-width="2" stroke-linecap="round" stroke-linejoin="round"/>
<path d="M45.584 122.538C44.6386 123.046 43.8892 123.84 43.4498 124.799C44.696 124.416 45.6817 123.552 46.6259 122.688L45.6018 125.159C46.0732 125.122 46.529 124.977 46.9322 124.736C47.3354 124.496 47.6746 124.166 47.9224 123.774C47.8413 123.808 47.7684 123.858 47.7087 123.922C47.6489 123.985 47.6036 124.06 47.5756 124.141C47.5477 124.223 47.5378 124.309 47.5465 124.395C47.5553 124.48 47.5825 124.563 47.6264 124.638C48.4848 124.517 49.0324 123.71 49.4646 122.979C49.5439 123.386 49.5747 123.801 49.5563 124.214C50.2741 124.315 51.0064 124.224 51.6757 123.952" stroke="#263238" stroke-width="0.75" stroke-linecap="round" stroke-linejoin="round"/>
<path d="M120.949 111.957H91.1088V127.898H120.949V111.957Z" fill="white" stroke="#263238" stroke-linecap="round" stroke-linejoin="round"/>
<path d="M90.9933 127.895L86.1952 123.457V107.516L90.9933 111.957V127.895Z" fill="white" stroke="#263238" stroke-linecap="round" stroke-linejoin="round"/>
<path d="M120.949 111.957L116.151 107.516H86.3144L91.1096 111.957H120.949Z" fill="white" stroke="#263238" stroke-linecap="round" stroke-linejoin="round"/>
<path d="M109.976 117.936H107.338V115.252H103.621V117.936H100.744V121.553H103.621V124.234H107.338V121.553H109.976V117.936Z" fill="#174B97" stroke="#263238" stroke-miterlimit="10"/>
<path d="M105.77 111.957L100.971 107.516" stroke="#263238" stroke-linecap="round" stroke-linejoin="round"/>
<path d="M42.6969 44.2064C46.1775 40.8199 46.1775 35.3293 42.6969 31.9428C39.2164 28.5563 33.5732 28.5563 30.0927 31.9428C26.6121 35.3293 26.6121 40.8199 30.0927 44.2064C33.5732 47.5929 39.2164 47.5929 42.6969 44.2064Z" fill="white" stroke="#263238" stroke-linecap="round" stroke-linejoin="round"/>
<path d="M43.808 36.7459C43.8079 37.3264 43.6208 37.8922 43.2731 38.3639C42.9253 38.8356 42.4343 39.1893 41.8692 39.3754L37.888 40.68L33.0425 42.2726C32.3287 42.501 31.5511 42.4455 30.8791 42.1184C30.2071 41.7913 29.6953 41.219 29.4551 40.5263C29.2149 39.8336 29.2658 39.0765 29.5968 38.4202C29.9278 37.7639 30.512 37.2614 31.2221 37.0224L35.6236 35.5824L40.0458 34.1424C40.4737 34.0024 40.9296 33.9632 41.376 34.0282C41.8224 34.0931 42.2466 34.2602 42.6136 34.5158C42.9807 34.7715 43.2801 35.1082 43.4872 35.4984C43.6944 35.8886 43.8033 36.3211 43.8051 36.7603L43.808 36.7459Z" fill="white"/>
<path d="M43.808 36.7459C43.8079 37.3263 43.6208 37.8922 43.2731 38.3639C42.9253 38.8355 42.4343 39.1892 41.8692 39.3753L37.888 40.6799C37.7818 38.7716 36.9788 36.9628 35.6236 35.5795L40.0458 34.1395C40.4737 33.9995 40.9296 33.9603 41.376 34.0252C41.8224 34.0901 42.2466 34.2573 42.6136 34.5129C42.9807 34.7685 43.2801 35.1053 43.4872 35.4955C43.6944 35.8857 43.8033 36.3182 43.805 36.7574L43.808 36.7459Z" fill="#174B97"/>
<path d="M43.808 36.7459C43.8079 37.3264 43.6208 37.8922 43.2731 38.3639C42.9253 38.8356 42.4343 39.1893 41.8692 39.3754L37.888 40.68L33.0425 42.2726C32.3287 42.501 31.5511 42.4455 30.8791 42.1184C30.2071 41.7913 29.6953 41.219 29.4551 40.5263C29.2149 39.8336 29.2658 39.0765 29.5968 38.4202C29.9278 37.7639 30.512 37.2614 31.2221 37.0224L35.6236 35.5824L40.0459 34.1424C40.4737 34.0024 40.9296 33.9632 41.376 34.0282C41.8224 34.0931 42.2466 34.2602 42.6136 34.5158C42.9807 34.7715 43.2801 35.1082 43.4872 35.4984C43.6944 35.8886 43.8033 36.3211 43.8051 36.7603L43.808 36.7459Z" stroke="#263238" stroke-linecap="round" stroke-linejoin="round"/>
<path d="M37.888 40.68C37.7974 38.7681 36.9921 36.9542 35.6236 35.5795" stroke="#263238" stroke-linecap="round" stroke-linejoin="round"/>
<path d="M42.8549 35.7119C43.0418 36.0182 43.1362 36.3696 43.1272 36.7257" stroke="white" stroke-linecap="round" stroke-linejoin="round"/>
<path d="M36.7484 35.9999L40.3004 34.8479C40.619 34.7416 40.9578 34.7054 41.2925 34.7417C41.6273 34.7781 41.9496 34.8861 42.2362 35.0582" stroke="white" stroke-linecap="round" stroke-linejoin="round"/>
<path d="M96.9526 26.3104C101.486 24.4437 103.605 19.3551 101.687 14.9446C99.768 10.5342 94.538 8.47201 90.005 10.3387C85.472 12.2054 83.3526 17.294 85.2711 21.7045C87.1897 26.115 92.4197 28.1771 96.9526 26.3104Z" fill="white" stroke="#263238" stroke-linecap="round" stroke-linejoin="round"/>
<path d="M96.5523 21.9542L88.7793 19.4227C88.133 19.2113 87.5994 18.7588 87.2958 18.1648C86.9921 17.5707 86.9434 16.8837 87.1602 16.2547C87.3775 15.6258 87.8425 15.1066 88.453 14.8112C89.0636 14.5158 89.7697 14.4684 90.4162 14.6793L98.1892 17.208C98.835 17.42 99.3681 17.8725 99.6716 18.4664C99.9751 19.0602 100.024 19.7469 99.8083 20.376C99.5909 21.0049 99.1261 21.5242 98.5157 21.8201C97.9053 22.116 97.1992 22.1642 96.5523 21.9542Z" fill="#174B97"/>
<path d="M90.8572 19.2211L92.1596 16.1942" stroke="#263238" stroke-linecap="round" stroke-linejoin="round"/>
<path d="M95.1403 20.6064L96.4368 17.5881" stroke="#263238" stroke-linecap="round" stroke-linejoin="round"/>
<path d="M91.9317 19.3996C92.0772 19.3996 92.1951 19.2848 92.1951 19.1433C92.1951 19.0017 92.0772 18.887 91.9317 18.887C91.7862 18.887 91.6682 19.0017 91.6682 19.1433C91.6682 19.2848 91.7862 19.3996 91.9317 19.3996Z" fill="#263238"/>
<path d="M94.5217 19.8979C94.5217 19.9486 94.5062 19.9982 94.4773 20.0403C94.4484 20.0825 94.4072 20.1153 94.3591 20.1347C94.3109 20.1541 94.258 20.1592 94.2069 20.1493C94.1558 20.1394 94.1088 20.115 94.072 20.0792C94.0351 20.0433 94.01 19.9977 93.9999 19.9479C93.9897 19.8982 93.9949 19.8467 94.0149 19.7998C94.0348 19.753 94.0686 19.713 94.1119 19.6848C94.1552 19.6566 94.2061 19.6416 94.2583 19.6416C94.3281 19.6416 94.3951 19.6686 94.4445 19.7167C94.4939 19.7647 94.5217 19.8299 94.5217 19.8979Z" fill="#263238"/>
<path d="M92.9529 17.1187C93.0984 17.1187 93.2163 17.004 93.2163 16.8624C93.2163 16.7208 93.0984 16.6061 92.9529 16.6061C92.8074 16.6061 92.6895 16.7208 92.6895 16.8624C92.6895 17.004 92.8074 17.1187 92.9529 17.1187Z" fill="#263238"/>
<path d="M95.5044 17.5938C95.5044 17.6445 95.489 17.6941 95.46 17.7362C95.4311 17.7784 95.3899 17.8113 95.3418 17.8307C95.2937 17.8501 95.2407 17.8551 95.1896 17.8452C95.1385 17.8353 95.0915 17.8109 95.0547 17.7751C95.0179 17.7392 94.9928 17.6936 94.9826 17.6438C94.9724 17.5941 94.9776 17.5426 94.9976 17.4958C95.0175 17.4489 95.0513 17.4089 95.0946 17.3807C95.1379 17.3526 95.1889 17.3375 95.241 17.3375C95.3109 17.3375 95.3779 17.3645 95.4273 17.4126C95.4767 17.4607 95.5044 17.5259 95.5044 17.5938Z" fill="#263238"/>
<path d="M96.5523 21.9542L88.7793 19.4227C88.133 19.2113 87.5994 18.7588 87.2958 18.1648C86.9921 17.5707 86.9434 16.8837 87.1602 16.2547V16.2547C87.3775 15.6258 87.8425 15.1066 88.453 14.8112C89.0636 14.5158 89.7697 14.4684 90.4162 14.6793L98.1892 17.208C98.835 17.42 99.3681 17.8725 99.6716 18.4664C99.9751 19.0602 100.024 19.7469 99.8083 20.376V20.376C99.5909 21.0049 99.1261 21.5242 98.5157 21.8201C97.9053 22.116 97.1992 22.1642 96.5523 21.9542V21.9542Z" stroke="#263238" stroke-linecap="round" stroke-linejoin="round"/>
<path d="M59.8335 26.5248C64.7557 26.5248 68.746 22.6423 68.746 17.8531C68.746 13.0638 64.7557 9.1814 59.8335 9.1814C54.9112 9.1814 50.9209 13.0638 50.9209 17.8531C50.9209 22.6423 54.9112 26.5248 59.8335 26.5248Z" fill="white" stroke="#263238" stroke-linecap="round" stroke-linejoin="round"/>
<path d="M64.9394 18.0748V21.6287C64.9394 22.5302 64.3474 23.2617 63.6222 23.2617H56.0446C55.3165 23.2617 54.7274 22.5302 54.7274 21.6287V18.0748C54.7274 17.1734 55.3194 16.4418 56.0446 16.4418H57.2908V14.3798H62.3228V16.4418H63.6134C64.3474 16.4418 64.9394 17.1734 64.9394 18.0748Z" fill="white" stroke="#263238" stroke-linecap="round" stroke-linejoin="round"/>
<path d="M64.9365 18.4838H54.7274V20.687H64.9365V18.4838Z" fill="#174B97" stroke="#263238" stroke-miterlimit="10"/>
<path d="M57.9864 11.9663H61.7278C62.1502 11.9663 62.5552 12.1296 62.8539 12.4201C63.1525 12.7107 63.3203 13.1048 63.3203 13.5158V15.1257H56.391V13.5158C56.391 13.312 56.4323 13.1103 56.5125 12.9221C56.5927 12.734 56.7102 12.563 56.8584 12.4191C57.0066 12.2752 57.1825 12.1611 57.3761 12.0834C57.5696 12.0057 57.777 11.9659 57.9864 11.9663Z" fill="#174B97" stroke="#263238" stroke-miterlimit="10"/>
<path d="M57.6016 12.0643V15.1258" stroke="#263238" stroke-linecap="round" stroke-linejoin="round"/>
<path d="M59.2385 11.9664V15.1258" stroke="#263238" stroke-linecap="round" stroke-linejoin="round"/>
<path d="M60.8753 11.9664V15.1258" stroke="#263238" stroke-linecap="round" stroke-linejoin="round"/>
<path d="M62.5122 12.1449V15.1257" stroke="#263238" stroke-linecap="round" stroke-linejoin="round"/>
<path d="M36.9995 65.2594C37.7958 60.5332 34.5036 56.0739 29.6462 55.2991C24.7888 54.5243 20.2055 57.7275 19.4092 62.4537C18.6129 67.1798 21.9051 71.6392 26.7625 72.414C31.62 73.1888 36.2032 69.9855 36.9995 65.2594Z" fill="white" stroke="#263238" stroke-linecap="round" stroke-linejoin="round"/>
<path d="M32.7255 66.0935C33.6962 64.0963 32.3615 61.5009 29.7442 60.2966C27.127 59.0924 24.2183 59.7352 23.2476 61.7324C22.2768 63.7297 23.6116 66.325 26.2288 67.5293C28.8461 68.7336 31.7547 68.0907 32.7255 66.0935Z" fill="#174B97" stroke="#263238" stroke-linecap="round" stroke-linejoin="round"/>
<path d="M33.0491 65.4143C33.9598 63.5408 32.5763 61.0457 29.9591 59.8414C27.3418 58.6371 24.4819 59.1797 23.5712 61.0533C22.6606 62.9268 24.0441 65.4219 26.6613 66.6262C29.2786 67.8305 32.1385 67.2879 33.0491 65.4143Z" fill="#174B97" stroke="#263238" stroke-linecap="round" stroke-linejoin="round"/>
<path d="M29.822 60.67L26.5867 65.0966" stroke="#263238" stroke-linecap="round" stroke-linejoin="round"/>
<path d="M27.8743 59.953C28.3079 60.0099 28.7351 60.1063 29.1501 60.241" stroke="white" stroke-linecap="round" stroke-linejoin="round"/>
<path d="M25.0002 64.1202C25.0002 64.1202 23.3485 62.3605 24.9617 60.6642C25.334 60.295 25.8188 60.0526 26.344 59.973" stroke="white" stroke-linecap="round" stroke-linejoin="round"/>
<path d="M130.88 65.2644C131.676 60.5383 128.384 56.0789 123.527 55.3041C118.669 54.5293 114.086 57.7325 113.29 62.4587C112.493 67.1848 115.786 71.6442 120.643 72.419C125.5 73.1938 130.084 69.9905 130.88 65.2644Z" fill="white" stroke="#263238" stroke-linecap="round" stroke-linejoin="round"/>
<path d="M127.2 64.7309C127.132 64.8259 127.064 64.9238 126.993 65.0189C125.658 66.8189 123.601 68.4979 122.076 68.8291V68.8061C120.596 68.4835 118.604 66.8851 117.269 65.1398C117.195 65.0448 117.124 64.9469 117.056 64.8518C115.772 63.0605 115.23 61.1798 116.66 60.4022C119.566 58.824 122.076 62.208 122.076 62.208C122.076 62.208 124.592 58.8499 127.493 60.4253C128.884 61.1798 128.408 62.9827 127.2 64.7309Z" fill="#174B97" stroke="#263238" stroke-miterlimit="10"/>
<path d="M127.2 64.7309C127.132 64.8259 127.064 64.9238 126.993 65.0189H126.259L125.418 66.0989L124.847 62.8963L123.959 65.0736H121.86L120.786 66.816L119.957 63.288L118.888 65.1283H117.269C117.195 65.0333 117.124 64.9353 117.056 64.8403H118.717L120.075 62.4989L120.91 66.0557L121.7 64.7741H123.772L124.956 61.825L125.59 65.3846L126.108 64.7193L127.2 64.7309Z" fill="white"/>
<path d="M113.504 46.8431C118.426 46.8431 122.417 42.9607 122.417 38.1714C122.417 33.3822 118.426 29.4998 113.504 29.4998C108.582 29.4998 104.592 33.3822 104.592 38.1714C104.592 42.9607 108.582 46.8431 113.504 46.8431Z" fill="white" stroke="#263238" stroke-linecap="round" stroke-linejoin="round"/>
<path d="M112.835 34.1625C112.921 34.3497 112.385 34.7645 111.651 35.0899C110.917 35.4153 110.23 35.5277 110.145 35.3376C110.059 35.1475 110.592 34.7357 111.329 34.4102C112.066 34.0848 112.746 33.984 112.835 34.1625Z" fill="white" stroke="#263238" stroke-linecap="round" stroke-linejoin="round"/>
<path d="M116.846 42.2063L114.179 43.462L111.787 38.6697L110.136 35.3577L112.803 34.0991L114.413 37.3305L116.846 42.2063Z" fill="white" stroke="#263238" stroke-linecap="round" stroke-linejoin="round"/>
<path d="M110.63 36.3456L111.787 35.8243L110.63 36.3456Z" fill="#174B97"/>
<path d="M110.63 36.3456L111.787 35.8243" stroke="#263238" stroke-linecap="round" stroke-linejoin="round"/>
<path d="M111.133 37.3881L112.291 36.8668L111.133 37.3881Z" fill="#174B97"/>
<path d="M111.133 37.3881L112.291 36.8668" stroke="#263238" stroke-linecap="round" stroke-linejoin="round"/>
<path d="M115.2 42.9811L116.577 44.7379L115.89 42.6556L115.2 42.9811Z" fill="white" stroke="#263238" stroke-linecap="round" stroke-linejoin="round"/>
<path d="M116.846 42.2064C116.222 42.8146 115.425 43.2278 114.558 43.393L114.179 43.4621L111.787 38.6698L114.413 37.3306L116.846 42.2064Z" fill="#174B97" stroke="#263238" stroke-miterlimit="10"/>
<path d="M112.291 39.5798L113.38 39.0902" stroke="#263238" stroke-linecap="round" stroke-linejoin="round"/>
<path d="M112.888 40.6943L113.957 40.2191L112.888 40.6943Z" fill="#174B97"/>
<path d="M112.888 40.6943L113.957 40.2191" stroke="#263238" stroke-linecap="round" stroke-linejoin="round"/>
<path d="M111.059 34.92L110.216 33.0739L110.879 32.7081L111.787 34.5773L111.059 34.92Z" fill="white" stroke="#263238" stroke-linecap="round" stroke-linejoin="round"/>
<path d="M112.507 32.4835L112.305 32.0515L108.753 33.5981L108.955 34.0301C109.038 34.2144 109.899 34.0128 110.882 33.5865C111.864 33.1603 112.59 32.665 112.507 32.4835Z" fill="white" stroke="#263238" stroke-linecap="round" stroke-linejoin="round"/>
<path d="M112.305 32.0514C112.222 31.87 111.358 32.0687 110.378 32.495C109.399 32.9212 108.67 33.4166 108.753 33.598C108.836 33.7794 109.701 33.5807 110.68 33.1516C111.66 32.7225 112.388 32.2329 112.305 32.0514Z" fill="white" stroke="#263238" stroke-linecap="round" stroke-linejoin="round"/>
</svg>
