<svg width="383" height="86" viewBox="0 0 383 86" fill="none" xmlns="http://www.w3.org/2000/svg">
<path d="M340 4.32812H42.668C21.312 4.32812 4 21.6401 4 42.9961C4 64.3521 21.312 81.6641 42.668 81.6641H340C361.356 81.6641 378.668 64.3521 378.668 42.9961C378.668 21.6401 361.356 4.32812 340 4.32812Z" fill="white"/>
<path d="M14 41.5C14 53.9272 21.3483 64 30.4142 64H42V19H30.4142C21.3483 19 14 29.0728 14 41.5Z" fill="#54AC35"/>
<path d="M367.802 41.7506C367.693 29.2311 359.968 19.1501 350.546 19.2323L338.505 19.3374L338.901 64.6717L350.941 64.5666C360.363 64.4844 367.911 54.2701 367.802 41.7506Z" fill="#54AC35"/>
<path d="M51 19.3281H83V64.6601H51V19.3281Z" fill="#54AC35"/>
<path d="M92 19.3281H124V64.6601H92V19.3281Z" fill="#54AC35"/>
<path d="M133 19.3281H165V64.6601H133V19.3281Z" fill="#54AC35"/>
<path d="M174 19.3281H206V64.6601H174V19.3281Z" fill="#54AC35"/>
<path d="M215 19.3281H247V64.6601H215V19.3281Z" fill="#54AC35"/>
<path d="M256 19.3281H288V64.6601H256V19.3281Z" fill="#54AC35"/>
<path d="M297 19H329V64.332H297V19Z" fill="#54AC35"/>
<path d="M340 0.328125H161.42C159.208 0.328125 157.42 2.11613 157.42 4.32812C157.42 6.54012 159.208 8.32812 161.42 8.32812H340C359.116 8.32812 374.668 23.8801 374.668 42.9961C374.668 62.1081 359.116 77.6601 340 77.6601H42.664C23.552 77.6601 8 62.1081 8 42.9961C8 23.8801 23.552 8.32812 42.664 8.32812H93.332C95.544 8.32812 97.332 6.54012 97.332 4.32812C97.332 2.11613 95.544 0.328125 93.332 0.328125H42.664C19.14 0.328125 0 19.4681 0 42.9961C0 66.5201 19.14 85.6601 42.664 85.6601H340C363.528 85.6601 382.668 66.5201 382.668 42.9961C382.668 19.4681 363.528 0.328125 340 0.328125Z" fill="#174B97"/>
<path d="M95.3 8.5H159C163.037 8.5 166.3 6.712 166.3 4.5C166.3 2.288 166.537 0.5 162.5 0.5H94.5C90.4631 0.5 93.3 2.288 93.3 4.5C93.3 6.712 91.2631 8.5 95.3 8.5Z" fill="#174B97"/>
</svg>
