<svg width="383" height="86" viewBox="0 0 383 86" fill="none" xmlns="http://www.w3.org/2000/svg">
<path d="M340 4H42.668C21.312 4 4 21.312 4 42.668C4 64.024 21.312 81.336 42.668 81.336H340C361.356 81.336 378.668 64.024 378.668 42.668C378.668 21.312 361.356 4 340 4Z" fill="white"/>
<path d="M24 42.668C24 55.188 34.148 65.336 46.668 65.336H62.668V20H46.668C34.148 20 24 30.148 24 42.668Z" fill="#54AC35"/>
<path d="M70.168 20H102.168V65.332H70.168V20Z" fill="#54AC35"/>
<path d="M109.668 20H141.668V65.332H109.668V20Z" fill="#54AC35"/>
<path d="M149.168 20H181.168V65.332H149.168V20Z" fill="#54AC35"/>
<path d="M188.668 20H220.668V65.332H188.668V20Z" fill="#54AC35"/>
<path d="M228.168 20H260.168V65.332H228.168V20Z" fill="#54AC35"/>
<path d="M267.668 20H299.668V65.332H267.668V20Z" fill="#54AC35"/>
<path d="M340 0H161.42C159.208 0 157.42 1.788 157.42 4C157.42 6.212 159.208 8 161.42 8H340C359.116 8 374.668 23.552 374.668 42.668C374.668 61.78 359.116 77.332 340 77.332H42.664C23.552 77.332 8 61.78 8 42.668C8 23.552 23.552 8 42.664 8H93.332C95.544 8 97.332 6.212 97.332 4C97.332 1.788 95.544 0 93.332 0H42.664C19.14 0 0 19.14 0 42.668C0 66.192 19.14 85.332 42.664 85.332H340C363.528 85.332 382.668 66.192 382.668 42.668C382.668 19.14 363.528 0 340 0Z" fill="#174B97"/>
<path d="M96.5 8H156.5C160.647 8 164 6.212 164 4C164 1.788 160.647 0 156.5 0H96.5C92.3525 0 89 1.788 89 4C89 6.212 92.3525 8 96.5 8Z" fill="#174B97"/>
</svg>
