<svg width="85" height="36" viewBox="0 0 85 36" fill="none" xmlns="http://www.w3.org/2000/svg">
<path d="M42.5 18.9916C49.0407 18.9916 54.343 14.7402 54.343 9.49581C54.343 4.25142 49.0407 0 42.5 0C35.9592 0 30.6569 4.25142 30.6569 9.49581C30.6569 14.7402 35.9592 18.9916 42.5 18.9916Z" fill="#FDDF80"/>
<path d="M38.6669 7.04982C39.3727 7.04982 39.9448 6.59106 39.9448 6.02515C39.9448 5.45925 39.3727 5.00049 38.6669 5.00049C37.9611 5.00049 37.389 5.45925 37.389 6.02515C37.389 6.59106 37.9611 7.04982 38.6669 7.04982Z" fill="#3F6E90"/>
<path d="M46.3342 7.04982C47.04 7.04982 47.6121 6.59106 47.6121 6.02515C47.6121 5.45925 47.04 5.00049 46.3342 5.00049C45.6284 5.00049 45.0562 5.45925 45.0562 6.02515C45.0562 6.59106 45.6284 7.04982 46.3342 7.04982Z" fill="#3F6E90"/>
<path d="M42.4996 13.9914C40.5398 13.9914 38.9986 13.4917 38.0479 13.0706C37.4302 12.7969 37.206 12.1734 37.5474 11.6781C37.8886 11.1828 38.6656 11.0029 39.284 11.2766C39.976 11.5831 41.0951 11.9522 42.531 11.942C43.9342 11.9367 45.0376 11.5773 45.7161 11.2768C46.3338 11.0029 47.1112 11.1827 47.4527 11.6781C47.7941 12.1734 47.5701 12.7969 46.9522 13.0706C46.0129 13.4867 44.4856 13.9842 42.543 13.9914C42.5283 13.9914 42.5139 13.9914 42.4996 13.9914Z" fill="#3F6E90"/>
<path d="M11.9978 18.9916C18.5385 18.9916 23.8408 14.7402 23.8408 9.49581C23.8408 4.25142 18.5385 0 11.9978 0C5.45706 0 0.154762 4.25142 0.154762 9.49581C0.154762 14.7402 5.45706 18.9916 11.9978 18.9916Z" fill="#FDDF80"/>
<path d="M8.1645 7.04982C8.87029 7.04982 9.44245 6.59106 9.44245 6.02515C9.44245 5.45925 8.87029 5.00049 8.1645 5.00049C7.45871 5.00049 6.88656 5.45925 6.88656 6.02515C6.88656 6.59106 7.45871 7.04982 8.1645 7.04982Z" fill="#3F6E90"/>
<path d="M15.8317 7.04982C16.5375 7.04982 17.1097 6.59106 17.1097 6.02515C17.1097 5.45925 16.5375 5.00049 15.8317 5.00049C15.126 5.00049 14.5538 5.45925 14.5538 6.02515C14.5538 6.59106 15.126 7.04982 15.8317 7.04982Z" fill="#3F6E90"/>
<path d="M8.16475 13.9914C7.71443 13.9914 7.27803 13.8002 7.04481 13.4619C6.70362 12.9664 6.92778 12.3431 7.54568 12.0694C8.49637 11.6484 10.0381 11.1487 11.9976 11.1487H12.0406C13.9833 11.156 15.5105 11.6534 16.4498 12.0695C17.0677 12.3432 17.2917 12.9667 16.9503 13.462C16.609 13.9575 15.8314 14.137 15.2137 13.8633C14.535 13.5629 13.4318 13.2034 12.0286 13.1981C10.6034 13.1937 9.47359 13.5569 8.78148 13.8635C8.5857 13.9502 8.37363 13.9914 8.16475 13.9914Z" fill="#3F6E90"/>
<path d="M73.0022 18.9916C79.543 18.9916 84.8453 14.7402 84.8453 9.49581C84.8453 4.25142 79.543 0 73.0022 0C66.4615 0 61.1592 4.25142 61.1592 9.49581C61.1592 14.7402 66.4615 18.9916 73.0022 18.9916Z" fill="#FDDF80"/>
<path d="M73.0022 0C72.1242 0 71.2698 0.0788928 70.4462 0.224293C75.7578 1.16158 79.7331 4.95544 79.7331 9.49595C79.7331 14.0365 75.7576 17.8302 70.4462 18.7676C71.2698 18.9129 72.1242 18.9919 73.0022 18.9919C79.5429 18.9919 84.8452 14.7404 84.8452 9.49608C84.8452 4.25173 79.5429 0 73.0022 0V0Z" fill="#F9D070"/>
<path d="M42.5 0C41.622 0 40.7675 0.0788928 39.9439 0.224293C45.2555 1.16158 49.2309 4.95544 49.2309 9.49595C49.2309 14.0365 45.2553 17.8302 39.9439 18.7676C40.7675 18.9129 41.622 18.9919 42.5 18.9919C49.0407 18.9919 54.343 14.7404 54.343 9.49608C54.343 4.25173 49.0407 0 42.5 0V0Z" fill="#F9D070"/>
<path d="M11.9977 0C11.1197 0 10.2653 0.0788928 9.44168 0.224293C14.7533 1.16158 18.7286 4.95544 18.7286 9.49595C18.7286 14.0365 14.7531 17.8302 9.44168 18.7676C10.2653 18.9129 11.1197 18.9919 11.9977 18.9919C18.5384 18.9919 23.8408 14.7404 23.8408 9.49608C23.8408 4.25173 18.5384 0 11.9977 0V0Z" fill="#F9D070"/>
<path d="M69.1685 7.04982C69.8743 7.04982 70.4464 6.59106 70.4464 6.02515C70.4464 5.45925 69.8743 5.00049 69.1685 5.00049C68.4627 5.00049 67.8905 5.45925 67.8905 6.02515C67.8905 6.59106 68.4627 7.04982 69.1685 7.04982Z" fill="#3F6E90"/>
<path d="M76.8364 7.04982C77.5422 7.04982 78.1144 6.59106 78.1144 6.02515C78.1144 5.45925 77.5422 5.00049 76.8364 5.00049C76.1306 5.00049 75.5585 5.45925 75.5585 6.02515C75.5585 6.59106 76.1306 7.04982 76.8364 7.04982Z" fill="#3F6E90"/>
<path d="M76.8364 13.9912H69.1682C68.4624 13.9912 67.8901 13.5324 67.8901 12.9666C67.8901 12.4007 68.4622 11.9419 69.1682 11.9419H76.8364C77.5423 11.9419 78.1144 12.4007 78.1144 12.9666C78.1144 13.5324 77.5423 13.9912 76.8364 13.9912Z" fill="#3F6E90"/>
<path d="M81.6293 31.9259H3.37064C1.59452 31.9259 0.154709 30.7715 0.154709 29.3474C0.154709 27.9232 1.59452 26.7688 3.37064 26.7688H81.6295C83.4056 26.7688 84.8454 27.9232 84.8454 29.3474C84.8453 30.7715 83.4054 31.9259 81.6293 31.9259Z" fill="url(#paint0_linear)"/>
<path d="M42.5 35.9739C47.0644 35.9739 50.7646 33.0071 50.7646 29.3473C50.7646 25.6875 47.0644 22.7207 42.5 22.7207C37.9356 22.7207 34.2354 25.6875 34.2354 29.3473C34.2354 33.0071 37.9356 35.9739 42.5 35.9739Z" fill="#F58A97"/>
<path d="M42.5 22.7207C41.6076 22.7207 40.7491 22.8355 39.944 23.0453C43.2569 23.9087 45.6525 26.403 45.6525 29.3473C45.6525 32.2915 43.2569 34.7859 39.944 35.6493C40.7491 35.8591 41.6076 35.9739 42.5 35.9739C47.0644 35.9739 50.7646 33.0071 50.7646 29.3473C50.7646 25.6875 47.0644 22.7207 42.5 22.7207Z" fill="#F07281"/>
<defs>
<linearGradient id="paint0_linear" x1="82.2941" y1="28.1377" x2="4.80656" y2="28.7659" gradientUnits="userSpaceOnUse">
<stop stop-color="#B1DAF8"/>
<stop offset="0.506575" stop-color="#1A7EC9"/>
<stop offset="1" stop-color="white" stop-opacity="0.33"/>
</linearGradient>
</defs>
</svg>
