<svg width="369" height="349" viewBox="0 0 369 349" fill="none" xmlns="http://www.w3.org/2000/svg">
<g filter="url(#filter0_d)">
<path fill-rule="evenodd" clip-rule="evenodd" d="M142.884 93.3742C164.931 93.313 185.55 89.8172 207.586 91.8122C232.774 94.0925 259.754 92.9137 280.586 105.841C302.653 119.534 314.173 141.869 323.26 163.594C333.184 187.319 342.074 212.457 335.148 236.285C327.928 261.125 311.368 285.858 284.501 296.94C258.46 307.681 226.884 289.863 197.81 292.934C165.119 296.387 134.019 331.34 105.482 315.85C76.2201 299.967 98.1304 259.119 85.2766 231.852C74.9993 210.051 46.2664 197.225 38.9343 174.682C30.0346 147.319 16.1541 110.836 39.8802 92.278C65.0888 72.5602 107.863 93.4715 142.884 93.3742Z" fill="white"/>
</g>
<path fill-rule="evenodd" clip-rule="evenodd" d="M139.054 80.9201C160.585 78.9619 180.511 73.6221 202.156 73.7631C226.897 73.9242 253.177 70.4016 274.312 81.8011C296.7 93.8763 309.314 115.676 319.513 137.062C330.652 160.418 340.867 185.303 335.554 210.212C330.016 236.179 315.349 262.84 289.783 276.458C265.002 289.658 233.075 274.191 204.864 279.824C173.145 286.158 144.898 324.497 116.081 311.146C86.5318 297.455 105.443 253.891 91.2265 227.174C79.8597 205.812 51.0136 195.195 42.4783 172.822C32.118 145.667 16.3371 109.634 38.3802 88.6578C61.8006 66.3707 104.853 84.0305 139.054 80.9201Z" fill="#F2994A"/>
<path d="M165.666 148.962C165.666 148.962 164.482 150.771 165.666 152.276H140.731V148.962H165.666Z" fill="#D0F3F1"/>
<path d="M166.074 152.39C166.074 152.467 166.031 152.543 165.967 152.6C165.902 152.657 165.816 152.695 165.73 152.695H128.641C127.974 152.695 127.415 152.219 127.415 151.609V149.743C127.415 149.152 127.952 148.657 128.641 148.657H165.73C165.924 148.657 166.074 148.79 166.074 148.962C166.074 149.133 165.924 149.266 165.73 149.266H142.689C142.237 149.266 141.872 149.59 141.872 149.99V151.381C141.872 151.781 142.237 152.105 142.689 152.105H165.73C165.924 152.086 166.074 152.219 166.074 152.39Z" fill="#EE504F"/>
<path d="M166.074 152.333C166.096 152.429 166.053 152.543 165.988 152.6C165.924 152.657 165.838 152.695 165.752 152.695H142.496C141.721 152.695 141.097 152.143 141.097 151.457V149.895C141.097 149.209 141.721 148.657 142.496 148.657H165.752C165.924 148.657 166.074 148.771 166.096 148.923C166.117 149.095 165.967 149.247 165.752 149.247H142.711C142.259 149.247 141.893 149.571 141.893 149.971V151.362C141.893 151.762 142.259 152.086 142.711 152.086H165.752C165.881 152.086 166.031 152.181 166.074 152.333Z" fill="#D34848"/>
<path d="M165.515 159.172C165.515 159.172 164.289 161.934 165.515 164.353H146.777V159.172H165.515Z" fill="#D0F3F1"/>
<path d="M166.182 164.43C166.182 164.544 166.139 164.658 166.053 164.734C165.967 164.811 165.859 164.849 165.73 164.849H126.167C125.134 164.849 124.274 164.106 124.274 163.172V160.277C124.274 159.362 125.113 158.6 126.167 158.6H165.73C165.967 158.6 166.182 158.772 166.182 158.981C166.182 159.21 165.988 159.382 165.752 159.382H148.95C148.111 159.382 147.422 159.991 147.422 160.734V162.658C147.422 163.401 148.111 164.011 148.95 164.011H165.73C165.967 164.068 166.182 164.22 166.182 164.43Z" fill="#197A83"/>
<path d="M166.182 164.43C166.182 164.544 166.139 164.658 166.053 164.734C165.967 164.811 165.859 164.849 165.73 164.849H148.541C147.379 164.849 146.432 164.011 146.432 162.982V160.486C146.432 159.458 147.379 158.62 148.541 158.62H165.73C165.967 158.62 166.182 158.791 166.182 159C166.182 159.229 165.988 159.401 165.752 159.401H148.95C148.111 159.401 147.422 160.01 147.422 160.753V162.677C147.422 163.42 148.111 164.03 148.95 164.03H165.73C165.967 164.068 166.182 164.22 166.182 164.43Z" fill="#156468"/>
<path d="M164.031 160.41H153.575V160.467H164.031V160.41Z" fill="#373133"/>
<path d="M159.577 160.41L160.352 163.496L161.148 162.372V160.639L159.577 160.41Z" fill="#38B0A9"/>
<path d="M163.45 161.21V163.496L161.922 162.487L160.33 163.496V161.21C160.33 160.658 159.577 160.41 159.577 160.41H162.933C163.45 160.544 163.45 161.134 163.45 161.21Z" fill="#6D68E0"/>
<path d="M163.45 161.21H160.352V161.191C160.352 160.639 159.599 160.391 159.599 160.391H162.955C163.45 160.544 163.45 161.134 163.45 161.21Z" fill="#5A5ABA"/>
<path d="M126.102 152.981C126.102 152.981 127.35 155.991 126.102 158.258H150.692V152.981H126.102Z" fill="#D0F3F1"/>
<path d="M167.623 154.657V156.638C167.623 157.743 166.612 158.639 165.364 158.639H126.145C125.952 158.639 125.801 158.505 125.801 158.334V158.315C125.801 158.143 125.952 158.01 126.145 158.01H148.433C149.315 158.01 150.047 157.362 150.047 156.581V154.733C150.047 153.952 149.315 153.305 148.433 153.305H126.145C126.038 153.305 125.952 153.267 125.887 153.209C125.823 153.152 125.78 153.057 125.78 152.962C125.801 152.79 125.952 152.676 126.145 152.676H165.364C166.612 152.657 167.623 153.552 167.623 154.657Z" fill="#F1884F"/>
<path d="M151.058 154.467V156.848C151.058 157.839 150.154 158.639 149.036 158.639H126.167C125.973 158.639 125.823 158.505 125.823 158.334V158.315C125.823 158.143 125.973 158.01 126.167 158.01H148.455C149.337 158.01 150.068 157.362 150.068 156.581V154.733C150.068 153.952 149.337 153.305 148.455 153.305H126.167C126.059 153.305 125.973 153.267 125.909 153.209C125.844 153.152 125.801 153.057 125.801 152.962C125.823 152.79 125.973 152.676 126.167 152.676H149.036C150.154 152.657 151.058 153.476 151.058 154.467Z" fill="#D37146"/>
<path d="M140.129 156.505H129.674V156.561H140.129V156.505Z" fill="#373133"/>
<path d="M137.677 156.486H136.343V157.991H137.677V156.486Z" fill="#38B0A9"/>
<path d="M136.902 157.8V162.582L135.439 161.42L134.041 162.582V157.991L136.902 157.8Z" fill="#A82329"/>
<path d="M137.677 156.486H134.837C134.837 156.486 134.837 157.61 134.041 157.991H136.881C136.881 157.991 137.677 157.8 137.677 156.486Z" fill="#EE504F"/>
<path d="M160.18 142.904C160.18 142.904 159.212 145.323 160.18 147.99H135.525V142.999L160.18 142.904Z" fill="#D0F3F1"/>
<path d="M136.665 142.199H160.223C160.502 142.199 160.718 142.389 160.718 142.637C160.718 142.885 160.502 143.075 160.223 143.075H136.902C136.235 143.075 135.676 143.551 135.676 144.161V146.695C135.676 147.285 136.214 147.78 136.902 147.78H160.223C160.502 147.78 160.718 147.971 160.718 148.219V148.257C160.718 148.504 160.502 148.695 160.223 148.695H136.665C135.697 148.695 134.901 147.99 134.901 147.133V143.799C134.901 142.904 135.697 142.199 136.665 142.199Z" fill="#6D68E0"/>
<path d="M157.039 146.276H146.583V146.332H157.039V146.276Z" fill="#373133"/>
<path d="M153.64 146.276H152.542V147.761H153.64V146.276Z" fill="#38B0A9"/>
<path d="M153.295 147.59V151.476L154.608 150.314L155.942 151.476V147.78L153.295 147.59Z" fill="#156468"/>
<path d="M152.542 146.276H155.146C155.146 146.276 155.146 147.399 155.942 147.761H153.338C153.338 147.78 152.542 147.59 152.542 146.276Z" fill="#197A83"/>
<path d="M47.7716 145.571C47.7716 145.571 45.7923 170.754 80.1494 166.544L82.1286 170.735C82.1286 170.735 91.8958 154.2 75.8037 151.495C72.5982 150.962 62.7665 151.152 62.7665 151.152L47.7716 145.571Z" fill="#5096F1"/>
<path d="M52.9132 192.433C52.9132 192.433 48.9548 194.528 41.8553 203.615L39.08 198.719L48.5675 189.632L52.9132 192.433Z" fill="black"/>
<path d="M41.8553 203.615C41.8553 203.615 33.9599 196.261 38.3056 189.632C38.3056 189.632 42.2641 183.689 49.3635 184.394C49.3635 184.394 61.6047 172.507 76.6211 179.841C76.6211 179.841 79.7837 195.576 49.7723 194.185C49.7508 194.166 39.8761 194.166 41.8553 203.615Z" fill="#5096F1"/>
<path d="M41.5326 203.672C39.876 197.081 42.0274 192.109 44.1357 189.118C46.4161 185.879 49.0408 184.203 49.1699 184.146L49.5356 184.622C49.5141 184.641 46.8894 186.299 44.6735 189.461C42.6513 192.356 40.5645 197.176 42.1565 203.557L41.5326 203.672Z" fill="#17311D"/>
<path d="M91.4224 183.517C91.4224 183.517 94.1977 175.478 102.868 176.164C102.868 176.164 107.644 169.973 116.701 175.459C119.863 177.383 122.617 179.65 121.434 188.394C121.434 188.394 118.465 184.032 110.763 183.841C105.535 183.746 91.4224 183.517 91.4224 183.517Z" fill="#5096F1"/>
<path d="M121.133 188.489C118.616 181.822 113.753 178.926 110.096 177.669C106.138 176.317 102.76 176.526 102.717 176.526L102.674 175.955C102.825 175.936 106.245 175.726 110.333 177.117C114.098 178.412 119.153 181.403 121.735 188.28L121.133 188.489Z" fill="#17311D"/>
<path d="M83.7206 200.128H70.6834C67.9082 200.128 65.4556 201.367 63.8206 202.491C62.4222 203.443 61.6047 204.319 61.6047 204.319C61.3466 201.481 62.7019 198.814 64.5736 196.947C65.4771 196.052 66.5098 195.347 67.521 194.89C79.8052 189.442 83.7206 200.128 83.7206 200.128Z" fill="#197A83"/>
<path d="M78.5789 200.148C77.0729 193.233 70.9846 193.88 70.9416 193.899L70.877 193.518C70.9416 193.518 77.4171 192.814 79.0091 200.071L78.5789 200.148Z" fill="#020403"/>
<path d="M79.1029 199.085L78.0417 199.241L81.6405 218.409L82.7017 218.253L79.1029 199.085Z" fill="#22452A"/>
<path d="M85.4416 218.721L84.366 218.587C86.0655 208.091 85.7214 202.148 85.162 197.728C84.1939 190.07 81.4402 185.746 79.2888 183.441C76.9869 180.965 74.8785 180.298 74.857 180.279L75.2227 179.384C75.3088 179.422 77.5677 180.126 80.0633 182.774C82.3222 185.175 85.2265 189.689 86.2377 197.614C86.797 202.11 87.1412 208.11 85.4416 218.721Z" fill="#5096F1"/>
<path d="M85.3556 198.49C83.8066 180.793 81.0529 166.582 81.0099 166.449L82.064 166.278C82.0855 166.411 84.8608 180.66 86.4097 198.414L85.3556 198.49Z" fill="#5096F1"/>
<path d="M90.3683 219.635L89.3141 219.445C95.9402 191.842 96.0263 181.517 96.0263 181.422H97.102C97.0805 181.517 97.016 191.918 90.3683 219.635Z" fill="#5096F1"/>
<path d="M82.0211 170.621C81.9995 170.507 79.9557 159.191 71.1352 155.457C68.7257 154.429 61.7123 151.286 61.6478 151.267L61.9489 150.752C62.0135 150.79 69.0269 153.933 71.4149 154.943C80.5366 158.81 82.6234 170.43 82.6449 170.545L82.0211 170.621Z" fill="#17311D"/>
<path d="M63.8206 202.491C62.4222 203.443 61.6047 204.319 61.6047 204.319C61.3466 201.481 62.7019 198.814 64.5736 196.947C64.1863 198.281 63.6485 200.51 63.8206 202.491Z" fill="#020403"/>
<path d="M66.9401 216.74H104.847L99.3179 251.353H72.4691L66.9401 216.74Z" fill="#197A83"/>
<path d="M129.63 167.097L103.492 251.334H98.4789L124.639 167.097H129.63Z" fill="#5096F1"/>
<path d="M124.639 167.097L150.778 251.334H155.791L129.63 167.097H124.639Z" fill="#5096F1"/>
<path d="M283.344 167.097H236.746V251.334H283.344V167.097Z" fill="#5096F1"/>
<path d="M146.045 167.097L172.206 251.334H177.197L151.058 167.097H146.045Z" fill="#5096F1"/>
<path d="M148.003 167.097L174.142 251.334H179.155L152.994 167.097H148.003Z" fill="#E5E5E5"/>
<path d="M151.058 167.097L124.897 251.334H119.906L146.045 167.097H151.058Z" fill="#5096F1"/>
<path d="M152.994 167.097L126.855 251.334H121.843L148.003 167.097H152.994Z" fill="#E5E5E5"/>
<path d="M136.042 164.887V169.306H282.355V251.334H324.371V164.887H136.042Z" fill="#E5E5E5"/>
<path d="M142.431 164.887H109.881V169.326H142.431V164.887Z" fill="#5096F1"/>
<path d="M285.431 171.288V248.876H322.155V171.288H285.431ZM321.036 247.886H286.55V233.484H297.673V236.075H310.989V233.484H321.058V247.886H321.036ZM321.036 232.494H286.55V217.216H297.673V219.807H310.989V217.216H321.058V232.494H321.036ZM321.036 216.244H286.55V202.281H297.673V204.777H310.989V202.281H321.058V216.244H321.036ZM321.036 201.291H286.55V187.423H297.673V190.013H310.989V187.423H321.058V201.291H321.036ZM321.036 186.432H286.55V172.259H297.673V174.717H310.989V172.259H321.058V186.432H321.036Z" fill="#5096F1"/>
<path d="M190.234 149.533L187.652 164.963H200.345L202.927 149.533H190.234Z" fill="#373133" fill-opacity="0.92"/>
<path d="M161.298 115.415L163.901 149.362C164.009 150.809 165.364 151.933 166.999 151.933H226.958C228.765 151.933 230.185 150.581 230.056 149L227.452 115.053C227.345 113.606 225.989 112.482 224.354 112.482H164.396C162.611 112.482 161.191 113.834 161.298 115.415Z" fill="#373133" fill-opacity="0.92"/>
<path d="M192.601 149.533L190.019 164.963H202.712L205.294 149.533H192.601Z" fill="#38B0A9"/>
<path d="M229.561 151.952H169.603C167.968 151.952 166.612 150.828 166.505 149.381L166.182 145.247L163.88 115.434C163.751 113.834 165.192 112.482 166.978 112.482H226.936C228.571 112.482 229.926 113.606 230.034 115.053L232.357 145.247L232.637 149C232.788 150.6 231.368 151.952 229.561 151.952Z" fill="#38B0A9"/>
<path d="M169.409 145.037L167.344 117.873C167.236 116.501 168.527 115.339 170.14 115.339H224.333C225.817 115.339 227.044 116.311 227.13 117.549L229.217 145.037H169.409Z" fill="#38B0A9"/>
<path d="M185.178 162.677H170.872V164.963H185.178V162.677Z" fill="#373133" fill-opacity="0.92"/>
<path d="M222.612 162.677H184.425V164.963H222.612V162.677Z" fill="#38B0A9"/>
<path d="M181.822 148.314H172.916V153.457C172.916 153.457 172.916 155.476 175.196 155.667H184.318C184.318 155.667 182.339 155.572 181.93 153.552L181.822 148.314Z" fill="#FC2B45"/>
<path d="M192.794 146.218H183.888V151.362C183.888 151.362 183.888 153.381 186.168 153.572H195.29C195.29 153.572 193.31 153.476 192.902 151.457L192.794 146.218Z" fill="#FD9E28"/>
<path d="M180.809 115.293L179.306 115.378L181.457 145.093L182.96 145.008L180.809 115.293Z" fill="#D0F3F1"/>
<path d="M212.005 115.293L210.502 115.378L212.654 145.093L214.156 145.008L212.005 115.293Z" fill="#D0F3F1"/>
<path d="M183.888 120.863L184.533 129.245H208.628L207.983 120.863H183.888Z" fill="#D0F3F1"/>
<path d="M214.222 121.168L214.501 124.673H224.548L224.268 121.168H214.222Z" fill="#D0F3F1"/>
<path d="M214.867 128.598L215.147 132.103H225.193L224.914 128.598H214.867Z" fill="#D0F3F1"/>
<path d="M215.512 136.027L215.792 139.532H225.839L225.559 136.027H215.512Z" fill="#D0F3F1"/>
<path d="M184.748 133.055L185.393 141.437H209.489L208.843 133.055H184.748Z" fill="#D0F3F1"/>
<path d="M192.708 117.72H183.888V118.673H192.708V117.72Z" fill="#D0F3F1"/>
<path d="M177.864 117.816H169.043V118.768H177.864V117.816Z" fill="#D0F3F1"/>
<path d="M178.079 120.482H169.258V121.435H178.079V120.482Z" fill="#D0F3F1"/>
<path d="M178.294 123.149H169.474V124.102H178.294V123.149Z" fill="#D0F3F1"/>
<path d="M178.509 125.816H169.689V126.769H178.509V125.816Z" fill="#D0F3F1"/>
<path d="M178.724 128.483H169.904V129.436H178.724V128.483Z" fill="#D0F3F1"/>
<path d="M219.6 118.006H214.006V118.959H219.6V118.006Z" fill="#D0F3F1"/>
<path d="M265.187 127.055L265.209 121.549C265.209 121.549 255.011 123.873 259.852 106.824C259.852 106.824 266.37 100.766 274.481 106.824L275.342 119.206L276.503 126.502L265.187 127.055Z" fill="#FCBB9D"/>
<path d="M279.752 106.9C280.591 99.9662 276.267 100.785 276.267 100.785C271.921 95.28 269.726 98.5565 269.726 98.5565C266.069 95.661 264.929 98.4613 264.929 98.4613C261.336 97.1468 260.691 99.9662 260.691 99.9662C257.313 99.3947 257.507 102.214 257.507 102.214C256.238 102.405 255.979 103.871 256.022 104.462C256.324 108.234 259.357 108.519 261.035 108.386L261.422 112.977C261.465 113.415 261.939 113.701 262.412 113.568C262.692 113.491 262.885 113.282 262.95 113.034C262.971 112.977 262.971 112.92 262.971 112.882C263.337 111.244 266.327 109.986 266.758 112.882C266.758 112.882 267.08 116.615 264.864 116.692C264.864 116.692 267.252 121.149 272.932 120.216C273.879 120.063 280.096 118.673 279.601 109.091C279.795 107.815 279.752 106.9 279.752 106.9Z" fill="#373133"/>
<path d="M255.958 150.581L247.654 157.781C246.901 158.429 245.954 158.867 244.921 159.039L217.986 163.63L210.887 164.011C210.887 164.011 212.178 162.487 213.899 162.106H209.166L204.454 163.915C203.895 164.125 203.25 163.934 202.97 163.458C202.712 163.02 202.841 162.468 203.293 162.144L208.305 158.772C209.123 158.22 210.155 157.953 211.188 158.048L217.857 158.601L220.31 159.382L241.974 150.581L252.193 141.532L255.958 150.581Z" fill="#CC8772"/>
<path d="M208.413 234.475L204.089 242.99L202.26 246.59H194.171L196.236 241.276L198.839 234.589L208.413 234.475Z" fill="#FCBB9D"/>
<path d="M203.508 244.152C202.798 244.8 199.915 246.952 195.161 244.019C195.118 244 195.075 243.981 195.01 244.019L181.865 250.248C181.241 250.534 181.478 251.372 182.188 251.372H203.637C204.627 251.372 205.358 250.553 205.143 249.715L203.744 244.247C203.723 244.114 203.594 244.076 203.508 244.152Z" fill="#174B97"/>
<path d="M240.253 234.475L237.263 243.047L236.036 246.59H227.947L229.044 241.657L230.679 234.399L240.253 234.475Z" fill="#FCBB9D"/>
<path d="M240.253 234.475L237.263 243.047L229.044 241.657L230.679 234.399L240.253 234.475Z" fill="#E6A68A"/>
<path d="M236.854 244.152C236.144 244.8 233.261 246.952 228.507 244.019C228.464 244 228.421 243.981 228.356 244.019L215.211 250.248C214.587 250.534 214.824 251.372 215.534 251.372H236.983C237.972 251.372 238.704 250.553 238.489 249.715L237.09 244.247C237.069 244.114 236.94 244.076 236.854 244.152Z" fill="#174B97"/>
<path d="M237.564 185.537L227.775 240.304L241.974 241.066L258.217 185.537H237.564Z" fill="#21516C"/>
<path d="M208.413 234.475L204.089 242.99L196.236 241.276L198.839 234.589L208.413 234.475Z" fill="#E6A68A"/>
<path d="M250.579 151.914L245.674 155.572L243.265 157.362C242.684 157.801 241.996 158.086 241.264 158.239L208.198 164.868C205.573 165.268 202.906 164.296 200.991 163.306C200.345 163.211 199.721 163.134 199.119 163.058C198.108 164.944 195.29 165.649 195.29 165.649L196.495 161.782C196.667 161.249 197.054 160.81 197.592 160.544L201.83 158.41C202.884 157.877 204.153 157.858 205.229 158.315L206.778 158.982L236.058 150.066L240.468 145.761L242.878 143.399L250.579 151.914Z" fill="#FCBB9D"/>
<path d="M250.579 151.914L245.674 155.572L240.468 145.799L242.878 143.437L250.579 151.914Z" fill="#E6A68A"/>
<path d="M256.022 171.059L253.656 173.726L230.959 176.145C225.193 176.755 220.31 180.184 218.309 185.003L195.72 239.161L210.995 241.257L234.918 195.595C234.918 195.595 293.069 203.958 286.615 177.136L256.022 171.059Z" fill="#21516C"/>
<path d="M260.906 125.702C260.755 125.74 255.764 127.607 252.967 130.884C248.191 136.484 241.2 144.618 241.2 144.618L248.901 153.819L252.408 150.733L251.978 166.544L249.504 173.821C249.504 173.821 253.548 176.564 257.033 178.012C270.802 183.727 289.304 181.441 289.304 181.441L287.066 143.285C287.066 143.285 287.647 129.817 281.559 125.626C281.559 125.626 274.223 122.292 260.906 125.702Z" fill="#38B0A9"/>
<path d="M255.78 148.295L248.678 153.633L249.095 154.069L256.197 148.731L255.78 148.295Z" fill="#373133"/>
<path d="M266.177 214.797H262.455V237.523H266.177V214.797Z" fill="#D0F3F1"/>
<path d="M259.422 203.1V212.625C259.422 215.025 261.616 216.968 264.327 216.968C267.037 216.968 269.232 215.025 269.232 212.625V203.1H259.422Z" fill="#D0F3F1"/>
<path d="M248.944 200.033V200.795C248.944 202.567 250.558 203.996 252.559 203.996H281.021C283.022 203.996 284.635 202.567 284.635 200.795V200.033H248.944Z" fill="#D0F3F1"/>
<path d="M262.369 195.576V201.31H289.39C291.175 201.31 292.617 200.033 292.617 198.452C292.617 196.871 291.175 195.595 289.39 195.595H262.369V195.576Z" fill="#D34848"/>
<path d="M239.349 198.433C239.349 200.014 240.791 201.291 242.576 201.291H261.809C263.595 201.291 265.037 200.014 265.037 198.433C265.037 196.852 263.595 195.576 261.809 195.576H242.576C240.791 195.576 239.349 196.852 239.349 198.433Z" fill="#EE504F"/>
<path d="M239.371 243.123L257.292 238.856V238.799C257.292 235.389 260.411 232.627 264.262 232.627C268.113 232.627 271.232 235.389 271.232 238.799V239.104L288.099 243.104C289.153 243.352 289.799 244.285 289.562 245.238C289.325 246.19 288.271 246.8 287.195 246.609L269.748 243.638H264.133H263.38H257.743L240.296 246.609C239.22 246.8 238.166 246.19 237.93 245.238C237.693 244.304 238.317 243.371 239.371 243.123Z" fill="#D0F3F1"/>
<path d="M283.968 251.353C285.763 251.353 287.217 250.065 287.217 248.476C287.217 246.888 285.763 245.6 283.968 245.6C282.174 245.6 280.72 246.888 280.72 248.476C280.72 250.065 282.174 251.353 283.968 251.353Z" fill="#373133"/>
<path d="M283.968 250.076C284.966 250.076 285.776 249.36 285.776 248.476C285.776 247.593 284.966 246.876 283.968 246.876C282.97 246.876 282.161 247.593 282.161 248.476C282.161 249.36 282.97 250.076 283.968 250.076Z" fill="#38B0A9"/>
<path d="M243.588 251.353C245.382 251.353 246.836 250.065 246.836 248.476C246.836 246.888 245.382 245.6 243.588 245.6C241.793 245.6 240.339 246.888 240.339 248.476C240.339 250.065 241.793 251.353 243.588 251.353Z" fill="#373133"/>
<path d="M243.588 250.076C244.586 250.076 245.395 249.36 245.395 248.476C245.395 247.593 244.586 246.876 243.588 246.876C242.589 246.876 241.78 247.593 241.78 248.476C241.78 249.36 242.589 250.076 243.588 250.076Z" fill="#38B0A9"/>
<path d="M104.137 65.5246H158.287C159.384 65.5246 160.287 66.3247 160.287 67.2962V102.519C160.287 103.49 159.384 104.29 158.287 104.29H104.137C103.04 104.29 102.136 103.49 102.136 102.519V67.2962C102.136 66.3247 103.04 65.5246 104.137 65.5246Z" fill="#D0F3F1"/>
<path d="M139.677 74.3445H104.998V91.1843H139.677V74.3445Z" fill="white"/>
<path d="M147.379 68.6868H111.172V70.7251H147.379V68.6868Z" fill="#38B0A9"/>
<path d="M152.349 70.7632C153.002 70.7632 153.532 70.2941 153.532 69.7155C153.532 69.1369 153.002 68.6678 152.349 68.6678C151.695 68.6678 151.166 69.1369 151.166 69.7155C151.166 70.2941 151.695 70.7632 152.349 70.7632Z" fill="#38B0A9"/>
<path d="M155.468 70.7632C156.122 70.7632 156.651 70.2941 156.651 69.7155C156.651 69.1369 156.122 68.6678 155.468 68.6678C154.815 68.6678 154.285 69.1369 154.285 69.7155C154.285 70.2941 154.815 70.7632 155.468 70.7632Z" fill="#38B0A9"/>
<path d="M149.681 74.3064H141.743V79.8879H149.681V74.3064Z" fill="#38B0A9"/>
<path d="M155.942 74.3064H151.166V75.297H155.942V74.3064Z" fill="#38B0A9"/>
<path d="M158.287 76.5543H151.166V77.5448H158.287V76.5543Z" fill="#38B0A9"/>
<path d="M155.942 81.9263H151.166V82.9168H155.942V81.9263Z" fill="#38B0A9"/>
<path d="M158.287 84.1741H151.166V85.1646H158.287V84.1741Z" fill="#38B0A9"/>
<path d="M155.942 89.4127H151.166V90.4033H155.942V89.4127Z" fill="#38B0A9"/>
<path d="M158.287 91.6606H151.166V92.6512H158.287V91.6606Z" fill="#38B0A9"/>
<path d="M155.942 96.8992H151.166V97.8897H155.942V96.8992Z" fill="#38B0A9"/>
<path d="M158.287 99.147H151.166V100.138H158.287V99.147Z" fill="#38B0A9"/>
<path d="M149.681 81.8691H141.743V87.4506H149.681V81.8691Z" fill="#38B0A9"/>
<path d="M149.681 89.4508H141.743V95.0323H149.681V89.4508Z" fill="#38B0A9"/>
<path d="M149.681 96.9563H141.743V102.538H149.681V96.9563Z" fill="#38B0A9"/>
<path d="M128.705 92.7845H104.761V94.5751H128.705V92.7845Z" fill="#38B0A9"/>
<path d="M107.342 100.747C108.768 100.747 109.924 99.7237 109.924 98.4612C109.924 97.1987 108.768 96.1753 107.342 96.1753C105.917 96.1753 104.761 97.1987 104.761 98.4612C104.761 99.7237 105.917 100.747 107.342 100.747Z" fill="#38B0A9"/>
<path d="M120.724 96.1943H112.118V97.8516H120.724V96.1943Z" fill="#38B0A9"/>
<path d="M119.39 79.2593V86.2505L125.306 82.7454L119.39 79.2593Z" fill="#E8315D"/>
<path d="M109.193 68.6868H104.976V70.7823H109.193V68.6868Z" fill="#38B0A9"/>
<path d="M192.859 86.0029H174.959C174.551 86.0029 174.206 86.3077 174.206 86.6696V98.7279C174.206 99.0899 174.551 99.3947 174.959 99.3947H185.63L190.707 103.338V99.3947H192.837C193.246 99.3947 193.59 99.0899 193.59 98.7279V86.6696C193.612 86.3077 193.268 86.0029 192.859 86.0029Z" fill="#D0F3F1"/>
<path d="M181.908 89.3556V95.9086L187.695 92.6321L181.908 89.3556Z" fill="#E8315D"/>
<path d="M240.274 77.221C240.274 76.6495 239.737 76.1733 239.091 76.1733H214.286C213.641 76.1733 213.103 76.6495 213.103 77.221V94.518C213.103 95.0895 213.641 95.5657 214.286 95.5657H216.782V100.709L221.859 95.5657H239.091C239.737 95.5657 240.274 95.0895 240.274 94.518V77.221Z" fill="#D0F3F1"/>
<path d="M236.359 81.5643H217.427V83.0882H236.359V81.5643Z" fill="#38B0A9"/>
<path d="M236.381 84.8218H217.449V86.3457H236.381V84.8218Z" fill="#38B0A9"/>
<path d="M236.381 88.0983H217.449V89.6222H236.381V88.0983Z" fill="#38B0A9"/>
<path d="M73.3081 117.444V123.749C73.3081 124.53 74.0181 125.14 74.8786 125.14H130.405C131.287 125.14 131.975 124.511 131.975 123.749V117.444C131.975 116.663 131.266 116.053 130.405 116.053H74.8786C74.0181 116.053 73.3081 116.682 73.3081 117.444Z" fill="#D0F3F1"/>
<path d="M73.3081 129.102V135.407C73.3081 136.189 74.0181 136.798 74.8786 136.798H130.405C131.287 136.798 131.975 136.169 131.975 135.407V129.102C131.975 128.321 131.265 127.711 130.405 127.711H74.8786C74.0181 127.711 73.3081 128.34 73.3081 129.102Z" fill="#D0F3F1"/>
<path d="M113.001 120.111H76.6427V121.082H113.001V120.111Z" fill="#38B0A9"/>
<path d="M79.0952 132.264L80.5581 132.988L80.0633 133.769L78.5573 132.988L78.5789 134.455H77.5892L77.6108 132.988L76.1263 133.75L75.61 132.969L77.0944 132.245L75.61 131.521L76.1263 130.74L77.6108 131.521L77.5892 130.055H78.5789L78.5573 131.521L80.0633 130.74L80.5581 131.521L79.0952 132.264Z" fill="#38B0A9"/>
<path d="M87.1843 132.264L88.6472 132.988L88.1524 133.769L86.6464 132.988L86.668 134.455H85.6783L85.6999 132.988L84.2154 133.75L83.6991 132.969L85.1835 132.245L83.6991 131.521L84.2154 130.74L85.6999 131.521L85.6783 130.055H86.668L86.6464 131.521L88.1524 130.74L88.6472 131.521L87.1843 132.264Z" fill="#38B0A9"/>
<path d="M95.2734 132.264L96.7363 132.988L96.2415 133.769L94.7355 132.988L94.757 134.455H93.7674L93.7889 132.988L92.3045 133.75L91.7881 132.969L93.2726 132.245L91.7881 131.521L92.3045 130.74L93.7889 131.521L93.7674 130.055H94.757L94.7355 131.521L96.2415 130.74L96.7363 131.521L95.2734 132.264Z" fill="#38B0A9"/>
<path d="M103.362 132.264L104.825 132.988L104.331 133.769L102.825 132.988L102.846 134.455H101.856L101.878 132.988L100.394 133.75L99.8773 132.969L101.362 132.245L99.8773 131.521L100.394 130.74L101.878 131.521L101.856 130.055H102.846L102.825 131.521L104.331 130.74L104.825 131.521L103.362 132.264Z" fill="#38B0A9"/>
<path d="M111.538 132.264L113.001 132.988L112.506 133.769L111 132.988L111.021 134.455H110.032L110.053 132.988L108.569 133.75L108.052 132.969L109.537 132.245L108.052 131.521L108.569 130.74L110.053 131.521L110.032 130.055H111.021L111 131.521L112.506 130.74L113.001 131.521L111.538 132.264Z" fill="#38B0A9"/>
<path d="M339 251.258H47.707V252.21H339V251.258Z" fill="#373133"/>
<defs>
<filter id="filter0_d" x="11.7269" y="78.8104" width="330.881" height="255.979" filterUnits="userSpaceOnUse" color-interpolation-filters="sRGB">
<feFlood flood-opacity="0" result="BackgroundImageFix"/>
<feColorMatrix in="SourceAlpha" type="matrix" values="0 0 0 0 0 0 0 0 0 0 0 0 0 0 0 0 0 0 127 0"/>
<feOffset dx="-5" dy="5"/>
<feGaussianBlur stdDeviation="5"/>
<feColorMatrix type="matrix" values="0 0 0 0 0.937255 0 0 0 0 0.345098 0 0 0 0 0.345098 0 0 0 0.2 0"/>
<feBlend mode="normal" in2="BackgroundImageFix" result="effect1_dropShadow"/>
<feBlend mode="normal" in="SourceGraphic" in2="effect1_dropShadow" result="shape"/>
</filter>
</defs>
</svg>
