<svg width="383" height="86" viewBox="0 0 383 86" fill="none" xmlns="http://www.w3.org/2000/svg">
<path d="M333.268 0.332031H45.7721C23.0266 0.332031 4.52002 19.3967 4.52002 42.832C4.52002 66.2674 23.0266 85.332 45.7721 85.332H333.268C356.013 85.332 374.52 66.2674 374.52 42.832C374.52 19.3967 356.013 0.332031 333.268 0.332031Z" fill="white"/>
<path d="M24 43.3321C24 55.8521 34.148 66.0001 46.668 66.0001H62.668V20.6641H46.668C34.148 20.6641 24 30.8121 24 43.3321Z" fill="#E0641E"/>
<path d="M70.168 20.6641H102.168V65.9961H70.168V20.6641Z" fill="#E0641E"/>
<path d="M109.668 20.6641H141.668V65.9961H109.668V20.6641Z" fill="#E0641E"/>
<path d="M149.168 20.332H181.168V65.664H149.168V20.332Z" fill="#E0641E"/>
<path d="M188.668 20.6641H220.668V65.9961H188.668V20.6641Z" fill="#E0641E"/>
<path d="M340 0.664062H42.664C19.14 0.664062 0 19.8041 0 43.3321C0 66.8561 19.14 85.9961 42.664 85.9961H340C363.528 85.9961 382.668 66.8561 382.668 43.3321C382.668 19.8041 363.528 0.664062 340 0.664062ZM340 77.9961H42.664C23.552 77.9961 8 62.4441 8 43.3321C8 24.2161 23.552 8.66406 42.664 8.66406H340C359.116 8.66406 374.668 24.2161 374.668 43.3321C374.668 62.4441 359.116 77.9961 340 77.9961Z" fill="#174B97"/>
</svg>
