<svg width="383" height="87" viewBox="0 0 383 87" fill="none" xmlns="http://www.w3.org/2000/svg">
<path d="M340 4.99609H42.668C21.312 4.99609 4 22.3081 4 43.6641C4 65.0201 21.312 82.3321 42.668 82.3321H340C361.356 82.3321 378.668 65.0201 378.668 43.6641C378.668 22.3081 361.356 4.99609 340 4.99609Z" fill="white"/>
<path d="M24 43.6641C24 56.1841 34.148 66.3321 46.668 66.3321H62.668V20.9961H46.668C34.148 20.9961 24 31.1441 24 43.6641Z" fill="#DD1616"/>
<path d="M70.168 20.9961H102.168V66.3281H70.168V20.9961Z" fill="#DD1616"/>
<path d="M109.668 20.9961H141.668V66.3281H109.668V20.9961Z" fill="#DD1616"/>
<path d="M340 0.996094H42.664C19.14 0.996094 0 20.1361 0 43.6641C0 67.1881 19.14 86.3281 42.664 86.3281H340C363.528 86.3281 382.668 67.1881 382.668 43.6641C382.668 20.1361 363.528 0.996094 340 0.996094ZM340 78.3281H42.664C23.552 78.3281 8 62.7761 8 43.6641C8 24.5481 23.552 8.99609 42.664 8.99609H340C359.116 8.99609 374.668 24.5481 374.668 43.6641C374.668 62.7761 359.116 78.3281 340 78.3281Z" fill="#174B97"/>
</svg>
