<svg width="25" height="25" viewBox="0 0 25 25" fill="none" xmlns="http://www.w3.org/2000/svg">
<g clip-path="url(#clip0)">
<path d="M4.01562 24.5H20.9844C22.9229 24.5 24.5 22.9229 24.5 20.9844V4.01562C24.5 2.07709 22.9229 0.5 20.9844 0.5H4.01562C2.07709 0.5 0.5 2.07709 0.5 4.01562V20.9844C0.5 22.9229 2.07709 24.5 4.01562 24.5ZM1.90625 4.01562C1.90625 2.85254 2.85254 1.90625 4.01562 1.90625H20.9844C22.1475 1.90625 23.0938 2.85254 23.0938 4.01562V20.9844C23.0938 22.1475 22.1475 23.0938 20.9844 23.0938H4.01562C2.85254 23.0938 1.90625 22.1475 1.90625 20.9844V4.01562Z" fill="black" fill-opacity="0.56"/>
<path d="M12.5 18.8281C15.9893 18.8281 18.8281 15.9893 18.8281 12.5C18.8281 9.01074 15.9893 6.17188 12.5 6.17188C9.01074 6.17188 6.17188 9.01074 6.17188 12.5C6.17188 15.9893 9.01074 18.8281 12.5 18.8281ZM12.5 7.57812C15.214 7.57812 17.4219 9.78601 17.4219 12.5C17.4219 15.214 15.214 17.4219 12.5 17.4219C9.78601 17.4219 7.57812 15.214 7.57812 12.5C7.57812 9.78601 9.78601 7.57812 12.5 7.57812Z" fill="black" fill-opacity="0.56"/>
<path d="M19.5312 7.57812C20.6943 7.57812 21.6406 6.63184 21.6406 5.46875C21.6406 4.30566 20.6943 3.35938 19.5312 3.35938C18.3682 3.35938 17.4219 4.30566 17.4219 5.46875C17.4219 6.63184 18.3682 7.57812 19.5312 7.57812ZM19.5312 4.76562C19.9189 4.76562 20.2344 5.08112 20.2344 5.46875C20.2344 5.85638 19.9189 6.17188 19.5312 6.17188C19.1436 6.17188 18.8281 5.85638 18.8281 5.46875C18.8281 5.08112 19.1436 4.76562 19.5312 4.76562Z" fill="black" fill-opacity="0.56"/>
</g>
<defs>
<clipPath id="clip0">
<rect width="24" height="24" fill="white" transform="translate(0.5 0.5)"/>
</clipPath>
</defs>
</svg>
