<svg width="25" height="25" viewBox="0 0 25 25" fill="none" xmlns="http://www.w3.org/2000/svg">
<path d="M4.01562 24.5H11.8438V15.9688H9.03125V13.1562H11.8438V9.64062C11.8438 7.70209 13.4208 6.125 15.3594 6.125H18.875V8.9375H16.0625C15.287 8.9375 14.6562 9.5683 14.6562 10.3438V13.1562H18.7481L18.2794 15.9688H14.6562V24.5H20.9844C22.9229 24.5 24.5 22.9229 24.5 20.9844V4.01562C24.5 2.07709 22.9229 0.5 20.9844 0.5H4.01562C2.07709 0.5 0.5 2.07709 0.5 4.01562V20.9844C0.5 22.9229 2.07709 24.5 4.01562 24.5ZM1.90625 4.01562C1.90625 2.85254 2.85254 1.90625 4.01562 1.90625H20.9844C22.1475 1.90625 23.0938 2.85254 23.0938 4.01562V20.9844C23.0938 22.1475 22.1475 23.0938 20.9844 23.0938H16.0625V17.375H19.4706L20.4081 11.75H16.0625V10.3438H20.2812V4.71875H15.3594C12.6454 4.71875 10.4375 6.92664 10.4375 9.64062V11.75H7.625V17.375H10.4375V23.0938H4.01562C2.85254 23.0938 1.90625 22.1475 1.90625 20.9844V4.01562Z" fill="black" fill-opacity="0.56"/>
</svg>
