<svg width="25" height="25" viewBox="0 0 25 25" fill="none" xmlns="http://www.w3.org/2000/svg">
<g clip-path="url(#clip0)">
<path d="M20.9844 0.5H4.01562C2.07709 0.5 0.5 2.07709 0.5 4.01562V20.9844C0.5 22.9229 2.07709 24.5 4.01562 24.5H20.9844C22.9229 24.5 24.5 22.9229 24.5 20.9844V4.01562C24.5 2.07709 22.9229 0.5 20.9844 0.5ZM23.0938 20.9844C23.0938 22.1475 22.1475 23.0938 20.9844 23.0938H4.01562C2.85254 23.0938 1.90625 22.1475 1.90625 20.9844V4.01562C1.90625 2.85254 2.85254 1.90625 4.01562 1.90625H20.9844C22.1475 1.90625 23.0938 2.85254 23.0938 4.01562V20.9844Z" fill="black" fill-opacity="0.56"/>
<path d="M4.76562 20.2812H8.98438V10.3438H4.76562V20.2812ZM6.17188 11.75H7.57812V18.875H6.17188V11.75Z" fill="black" fill-opacity="0.56"/>
<path d="M16.0197 10.3438C16.0184 10.3438 16.0169 10.3438 16.0156 10.3438C15.5295 10.3438 15.056 10.425 14.6094 10.5829V10.3438H10.3906V20.2812H14.6094V15.2656C14.6094 14.878 14.9249 14.5625 15.3125 14.5625C15.7001 14.5625 16.0156 14.878 16.0156 15.2656V20.2812H20.2344V14.7822C20.2344 12.5066 18.3883 10.3459 16.0197 10.3438ZM18.8281 18.875H17.4219V15.2656C17.4219 14.1025 16.4756 13.1562 15.3125 13.1562C14.1494 13.1562 13.2033 14.1025 13.2031 15.2654V18.875H11.7969V11.75H13.2031V13.1572L14.3285 12.312C14.8179 11.9443 15.4013 11.75 16.0156 11.75H16.0184C17.5151 11.7515 18.8281 13.1683 18.8281 14.7822V18.875Z" fill="black" fill-opacity="0.56"/>
<path d="M4.76562 8.9375H8.98438V4.71875H4.76562V8.9375ZM6.17188 6.125H7.57812V7.53125H6.17188V6.125Z" fill="black" fill-opacity="0.56"/>
</g>
<defs>
<clipPath id="clip0">
<rect width="24" height="24" fill="white" transform="translate(0.5 0.5)"/>
</clipPath>
</defs>
</svg>
