<svg width="25" height="21" viewBox="0 0 25 21" fill="none" xmlns="http://www.w3.org/2000/svg">
<path d="M24.5 3.32649C22.9903 3.39607 23.0233 3.39039 22.8526 3.40468L23.7467 0.851271C23.7467 0.851271 20.9558 1.87794 20.2483 2.0616C18.3901 0.391493 15.6282 0.317701 13.6536 1.53132C12.0366 2.5254 11.1686 4.2325 11.4581 6.2278C8.31109 5.79109 5.65954 4.29933 3.5661 1.78456L2.90399 0.989332L2.40924 1.8979C1.78394 3.04597 1.57629 4.35866 1.8244 5.59407C1.92621 6.1009 2.09924 6.5843 2.33893 7.03694L1.77093 6.81685L1.70355 7.76588C1.63525 8.72993 1.95624 9.8553 2.56232 10.776C2.73297 11.0352 2.9527 11.32 3.2312 11.6008L2.93768 11.5558L3.29584 12.6433C3.7666 14.072 4.74438 15.1774 6.0133 15.7919C4.74603 16.3297 3.72229 16.6729 2.03955 17.2264L0.5 17.7325L1.922 18.51C2.46417 18.8064 4.38 19.7965 6.27295 20.0935C10.4807 20.7534 15.2182 20.216 18.4075 17.3436C21.0939 14.9242 21.9753 11.4827 21.7922 7.90138C21.7646 7.35921 21.9131 6.84175 22.2104 6.44459C22.8061 5.64937 24.4963 3.3318 24.5 3.32649ZM21.086 5.60231C20.5922 6.26167 20.3448 7.10377 20.3891 7.97316C20.5738 11.5856 19.5909 14.3872 17.4675 16.2995C14.9869 18.5336 10.9859 19.4105 6.49066 18.7053C5.67657 18.5777 4.8352 18.2919 4.13885 18.0064C5.54968 17.521 6.63916 17.0883 8.39862 16.2556L10.8548 15.093L8.143 14.9194C6.84405 14.8363 5.76245 14.2068 5.09759 13.1847C5.45062 13.1642 5.79101 13.1071 6.12994 13.0126L8.71631 12.2923L6.10834 11.6536C4.84106 11.3432 4.11871 10.585 3.73584 10.0034C3.48444 9.62129 3.32019 9.22981 3.22168 8.86891C3.48315 8.93904 3.78802 8.98903 4.27966 9.03773L6.69354 9.2765L4.78101 7.78456C3.40295 6.70973 2.85071 5.09492 3.25555 3.54255C7.55633 8.00337 12.606 7.6681 13.1143 7.78602C13.0024 6.69929 12.9995 6.69673 12.9702 6.59328C12.3193 4.29219 13.7458 3.12379 14.3893 2.72828C15.7333 1.9023 17.8666 1.77778 19.3443 3.13862C19.6634 3.43233 20.095 3.54786 20.499 3.44752C20.8615 3.35744 21.1591 3.26204 21.4504 3.15822L20.8439 4.89003L21.6181 4.89058C21.472 5.0865 21.2967 5.32106 21.086 5.60231Z" fill="black" fill-opacity="0.56"/>
</svg>
